<svg width="409" height="324" viewBox="0 0 409 324" fill="none" xmlns="http://www.w3.org/2000/svg">
<path d="M335 260.4C333.9 258.1 331.2 257.1 327 257.2C326.2 257.1 325.4 256.8 324.7 256.4C323.9 256 323 255.5 322.3 254.9C318.2 253.5 314.3 252.3 310.6 251.4C306.7 250.5 302.6 250.1 298.6 250.2C295.3 250 292 249.4 288.9 248.5C284.4 247.3 279.7 246.5 275 246.2C269.8 245.8 264.6 245.5 259.4 245.2C254.1 244.9 249 243.5 244.4 241C242.9 240.5 241.3 240.3 239.8 240.7C234.3 240.7 228.7 240.6 223.1 240.2C217.4 239.8 211.7 239.7 205.9 239.9C200.5 240.1 195.1 240.2 189.7 240C189.7 238.7 189.7 237.4 189.7 236C189.8 231.7 188.7 195.6 188.8 191.1C188.7 188.6 188.8 186 188.9 183.5C189.1 180.8 188.8 178.1 188.2 175.5L188.3 175.2C188.9 173.2 189.4 171.1 189.7 169C189.9 166.8 189.7 164.6 189 162.6C189.2 161.1 189.3 159.6 189.4 158C189.5 156.4 189.6 154.8 189.6 153C192 143.1 191.2 74.1001 189.8 63.9001C189.4 63.1001 189.3 62.1001 189.6 61.2001C189.9 60.5001 190.1 59.7001 190.2 58.9001C191 57.1001 191.4 55.2001 191.5 53.3001C191.6 51.5001 191.6 49.7001 191.7 47.9001C192.4 45.2001 192.7 42.3001 192.5 39.5001C192.3 36.7001 192.2 33.9001 192.3 31.1001C192.4 27.9001 191.5 24.8001 189.8 22.2001C188 19.6001 186 17.3001 183.7 15.2001C180.6 12.3001 177.1 10.1001 173.2 8.50005C169.2 6.90005 165.7 4.30005 163.1 1.00005C162.5 5.12004e-05 161.2 -0.299948 160.2 0.400052C160.2 0.400052 160.2 0.400052 160.1 0.400052C159 1.00005 158.3 2.10005 158 3.30005C157.8 4.80005 157.5 6.30005 157.1 7.70005C156.7 9.10005 156.7 10.6001 157 12.1001L157.1 15.2001L158.2 49.6001C158.5 49.6001 158.7 49.5001 159 49.5001C158.9 55.4001 158.8 61.1001 158.7 66.7001V67.3001L158.8 76.8001L155.8 79.5001C153.9 81.3001 151.9 83.2001 149.9 85.2001C144.4 90.2001 139.1 95.4001 134 100.7C128.8 106.1 130.4 105.1 124.7 109.8C122.9 110.4 121.3 111.4 119.9 112.6C118.6 113.8 117.2 115 115.7 116.2C111.5 120.2 107.4 124 103.4 127.6C99.4 131.2 86.6 138.6 82.9 139.4C78.3 137.8 68.8 138.7 63.8 139.6C59 140.5 54.1 140.9 49.2 140.9C48.1 141 47 141.1 45.8 141.2C44.2 141.5 42.6 142.3 41.4 143.4C44.3 143.3 47 143.2 49.3 143.2C51.6 143.2 54 143.1 56.3 142.9C54.9 145.4 54.3 147 54.5 147.6C54.7 148.2 56.1 149.1 58.6 150.5C57.9 151.6 57.1 152.6 56.2 153.4C55.3 154.2 55.1 155.6 55.9 156.5C56.7 157 57.6 157.6 58.5 158.3C59.3 158.9 60.3 159.3 61.3 159.4C61.6 159.7 62.4 159.6 63.8 159.3L66.5 159.6C66.7 160.1 59.6 165.3 56.5 169.5C53.4 173.7 39.4 188.9 35.4 193.8C31.4 198.7 27.6 203.3 24 207.6C20.4 211.9 18.3 214.4 17.9 215C16.8 216.2 15.7 217.5 14.6 218.8C13.5 220.1 12.3 221.4 11 222.6C9.29998 224.2 7.79998 225.9 6.29998 227.6C4.79998 229.3 3.39998 231.1 1.99998 233C1.49998 233.7 0.999976 234.5 0.599976 235.4C0.0999756 236.4 0.0999756 236.7 0.599976 236.6C1.49998 236.4 2.49998 236.8 2.99998 237.5C3.49998 238.2 4.09998 238.9 4.69998 239.5C5.29998 240.1 5.89998 240.6 6.59998 241C7.29998 241.4 8.29998 241.2 9.89998 240.5C12.2 238.4 14.8 236.7 17.5 235.3C20.1 234 22.7 232.8 25.3 231.8C27.7 230.9 31.6 228.1 37.1 223.2C42.6 218.3 48.4 213 54.4 207.2C60.5 201.4 66.1 195.8 71.4 190.4C76.7 185.1 92.2 169 94.1 167.2C99.2 167.3 103.8 169.6 108.7 169.7C113.6 169.8 118.7 171.8 123.8 173.2C131.5 175.3 151.1 180.8 159.7 182.5L160.2 236.2V238.7C160.2 238.7 160.8 247.7 161.2 252.2C161.7 257.7 162.1 263.1 162.4 268.4C162.4 268.5 162.4 268.5 162.4 268.6C162.6 270.7 162.9 272.8 163.3 274.8C163.7 276.8 164.1 279 164.6 281C165.5 284.7 166.2 288.4 166.6 292.2C166.7 292.9 166.8 293.6 166.8 294.2C167.2 298.7 167.7 303.2 168.2 307.8C168.2 308.9 168.3 310.1 168.5 311.2C168.7 312.3 168.8 313.4 168.8 314.6C168.4 316.3 168.7 318 169.4 319.6C170.1 321 171.3 322.2 172.7 323.1C173.8 323.8 175.1 323.8 176.2 323C177.4 322.3 178.6 321.4 179.6 320.5C180 321.6 181.2 322.3 183.1 322.7C186.1 323.7 187.7 322.7 187.8 319.6C187 317.4 186.9 314.9 187.6 312.7L186.1 312.1C187.2 308.5 188.1 304.8 189 301.2C189.7 298.3 190 295.3 190 292.4C190 291.6 190 290.7 190 289.9C190 289.5 190 289.2 190 288.8C190 287.9 189.9 286.9 189.9 286H190V269.7C200.6 270 211.3 270.4 222 270.8C233.7 272.1 245.4 272.7 257.1 272.8C268.8 272.9 280.5 272.9 292.1 272.8C294.5 272.8 296.9 272.7 299.2 272.5C301.6 272.3 303.9 271.8 306.2 270.9C308.6 270.4 310.9 270 313.2 269.6C315.5 269.2 317.8 268.9 320.2 268.6C320.8 268.4 321.4 268.4 322 268.4C327.3 268 336.1 262.7 335 260.4ZM145.2 150.5C140.9 149.5 129.2 146 125 146.1C122.6 146.3 121 146 120.1 145.2C119.2 144.4 127.2 139.7 129.5 136.6C137.5 129.2 139.9 127.2 148.1 120C151.7 116.8 155.4 113.6 159 110.4L159.4 153.9C153.9 152.3 147.1 150.3 145.2 150.5Z" fill="#E8E8E8"/>
<path d="M405.3 154.3L405.5 162.7L402.3 170L399.4 177.3L396.4 184.7L391.4 190.9L387.1 197.5L381.9 203.4L377 209.5L375.6 211.4C375.2 211.4 374.8 211.3 374.4 211.2C374.1 211.2 373.8 211.1 373.6 210.9C373.2 210.5 373.7 209.8 374 209.2C374.3 208.6 374.2 207.7 373.4 207.9H373.5C374.2 207.5 374.4 206.6 374 205.9C374 205.8 373.9 205.8 373.9 205.7C373.5 205 373 204.1 373.8 203.4C374 203.2 374.2 203.1 374.4 203C374.4 203 374.4 203 374.5 203C375 202.5 375 201.7 374.5 201.2C374.1 200.7 373.5 200.3 373.3 199.7C373.2 199.2 373.4 198.8 373.7 198.5C373.7 198.5 373.7 198.5 373.8 198.5C373.8 198.5 373.9 198.4 374 198.4C374.1 198.3 374.2 198.3 374.4 198.3C374.4 198.3 374.5 198.3 374.6 198.3C375 199.4 375.2 199.9 375.7 200.9C376.2 200.7 376.6 200.4 377 200C377.1 199.9 377.2 199.8 377.3 199.7C377.6 199.4 377.9 199.1 378.1 198.7C376.8 197.1 377.3 194.5 379.1 192.7C379.3 192.5 379.4 192.4 379.6 192.3C379.8 192.2 380 192 380.2 191.9C380.2 191.9 380.2 191.9 380.3 191.9C381.7 191.2 383.2 190.6 384.7 190.2C385.7 189.8 386.8 189.3 387.5 188.6C387.6 188.5 387.7 188.4 387.8 188.2C388 188 388.1 187.7 388.2 187.5C389.1 185.3 390.1 183.3 389.9 181C389.5 176.8 388.8 172.6 387.7 168.5C387.4 167.4 387 166.2 385.8 165.7C385.8 165.7 385.8 165.7 385.8 165.8C386.3 169.5 386.5 173.1 386.5 176.8C385.7 176.6 384.8 176.3 384.5 175.7C384.5 175.6 384.4 175.5 384.4 175.4V175.3C384.4 174.9 384.5 174.5 384.6 174.2C384.6 174.2 384.6 174.2 384.6 174.1C384.6 174 384.6 174 384.6 173.9C384.6 173.9 384.6 173.9 384.6 173.8C384.6 173.2 384.6 172.6 384.4 172C383.1 166.7 382.3 163.9 380.8 158.4C380.6 157.2 380 156.1 379.1 155.3C378.4 155 377.6 154.6 377 154.1C376.5 153.7 376.3 153.1 375.9 152.6C374.6 151.4 372 152.4 370.8 151C370.5 150.6 370.3 150.1 370 149.7C369 148.3 366.6 148.4 365.3 147.2C364.6 146.3 364.1 145.2 364 144.1C363.3 141.3 361.8 138.4 359 137.4C358.1 137.2 357.2 136.9 356.4 136.6C355.7 136.2 355 135.4 355.2 134.6C355.2 134.5 355.2 134.5 355.3 134.4C355.3 134.3 355.4 134.2 355.4 134.1C355.5 133.9 355.5 133.8 355.5 133.6C355.5 133.5 355.5 133.4 355.6 133.2C355.7 132.3 355.7 131.4 355.9 130.5C355.9 130.4 355.9 130.3 356 130.2C356 130 356.1 129.9 356.2 129.7V129.6C357.2 127 361.4 126.9 362.4 124.4C362.5 123.8 362.7 123.3 362.9 122.7C362.9 122.7 362.9 122.7 362.9 122.6C363.3 121.9 363.9 121.5 364.3 120.9C364.3 120.8 364.4 120.7 364.4 120.6C364.4 120.5 364.5 120.5 364.5 120.4C364.5 120.3 364.5 120.2 364.5 120.1C364.7 119 364.1 117.8 363.4 116.8C362.5 115.6 361.5 114.4 361.2 113C360.9 111.6 361.5 110 361.7 108.5C362 105.2 359.7 102 357.3 99.6001C356.5 98.9001 355.8 98.1001 355.4 97.1001C355.1 96.4001 355.1 95.7001 355.2 94.9001C355.2 94.5001 355.3 94.2001 355.3 93.9001V93.8001C355.3 93.6001 355.3 93.3001 355.3 93.1001C355.4 89.8001 353.4 86.4001 354 83.2001C354.1 82.8001 354.2 82.4001 354.3 82.0001C354.4 81.8001 354.5 81.6001 354.6 81.4001C355.3 80.0001 356.3 78.7001 357.1 77.3001C357.6 76.5001 357.9 75.6001 358.2 74.7001C358.3 74.4001 358.4 74.1001 358.5 73.8001C358.6 73.6001 358.6 73.3001 358.7 73.1001C358.7 72.9001 358.8 72.6001 358.8 72.4001C358.8 72.1001 358.9 71.9001 358.9 71.6001C359.1 70.3001 359.1 69.0001 358.9 67.7001C358.8 67.2001 358.7 66.6001 358.6 66.1001C358.5 65.6001 358.4 65.1001 358.2 64.6001C357.8 63.5001 357.5 62.3001 357.2 61.2001C356.9 59.1001 357.5 57.1001 357.2 55.0001C356.9 52.3001 355.1 49.5001 355.8 46.9001C355.1 44.5001 353.6 42.4001 351.4 41.1001L348.5 39.0001L356.2 42.1001L363.1 46.6001L369 52.4001L375.4 57.4001L381.8 62.6001L385.8 69.9001L391.7 75.7001L395.7 82.9001L398.3 90.7001L401.5 98.2001L404.6 105.7L406.1 113.7L407.2 121.7L407.5 129.8L407.8 137.9L408.5 146.1L405.3 154.3Z" fill="#E8E8E8"/>
<path d="M370.4 154.5C369.9 154.3 369.3 154.2 368.7 154.3C368.6 154.3 368.5 154.3 368.4 154.4C368.1 154.5 367.8 154.6 367.6 154.8C366.8 155.4 366.2 156 365.6 156.8C364.8 157.9 363.7 158.7 362.4 159.1C362.2 159.2 362.1 159.2 361.9 159.3C361.8 159.3 361.6 159.4 361.5 159.4H361.4C359.7 159.5 358 157.8 358.7 156.3C359.2 155.4 360.3 155 361.3 154.5C362.3 154 363.3 153.2 363.1 152.2C361.4 152 359.8 151.1 358.7 149.8C357.8 148.3 358 146.3 359.3 145.1L359.4 145L359.5 144.9C360.6 143.6 360.4 141.6 359.1 140.6C358.4 140.2 357.7 139.8 357 139.5C355.9 138.9 355.1 137.8 354.8 136.7C354.2 136.5 353.6 136.5 353 136.6C352.9 136.6 352.7 136.6 352.6 136.7C351.6 137 350.7 137.6 350.1 138.5C349.9 138.9 349.6 139.3 349.3 139.7C349.1 139.9 348.8 140 348.6 140.1C348.5 140.1 348.5 140.1 348.4 140.1C347.5 140.2 346.4 139.8 345.5 139.3C342.7 137.8 341.4 137.1 338.6 135.6C336.9 134.7 335.1 133.7 334.3 132C333.8 130.9 333.6 129.6 332.8 128.8C332 127.9 330.8 127.7 329.7 127.2C326.8 125.8 325.1 122.8 325.4 119.7C325.5 118.7 325.8 117.7 325.1 116.8C324.4 115.9 323 116.1 322 115.7C320.1 115 319.5 112.5 317.8 111.5C316.8 111 315.6 111 314.7 110.2C313.8 109.4 313.9 107.9 313.1 106.9C312.3 105.8 310.7 105.6 309.9 104.5C309.1 103.4 309.5 101.7 310 100.4C310.4 99.1 310.9 98 311.6 96.9C313.2 94.7 316.1 93.4 317.4 91.1C317.5 91 317.5 90.9 317.5 90.8C317.7 90.4 317.9 89.9 318 89.4C318 88.3 317.9 87.1 317.7 86C317.6 85.2 317.7 84.5 318.1 83.8C318.1 83.7 318.2 83.6 318.3 83.6C318.3 83.5 318.4 83.5 318.5 83.4C318.6 83.3 318.7 83.2 318.8 83.1C319.2 82.9 319.6 82.7 320.1 82.6C323.1 81.8 324.6 81.4 327.6 80.6C328.1 80.5 328.5 80.3 328.8 79.9C328.8 79.9 328.8 79.9 328.9 79.8C329.1 79.5 329.1 79.1 329.1 78.7C329.1 77.3 329.5 75.9 330.2 74.6C330.3 74.5 330.3 74.4 330.4 74.3C330.5 74.2 330.6 74 330.7 73.9C330.8 73.8 330.9 73.7 331 73.6C331.7 72.8 332.7 72.2 333.6 72.3C333.6 72.3 333.7 72.3 333.8 72.3C332.7 71.2 332.1 69.7 332 68.2C334.9 68.7 337.8 69.5 340.5 70.5C340.5 70.5 340.5 70.5 340.6 70.5C340.7 69.4 340.7 68.3 340.6 67.2C340.5 66.1 340.8 65 341.6 64.3C341.8 64.2 342 64.1 342.2 64C342.4 64 342.6 63.9 342.8 63.9C343.6 63.9 344.4 64.2 345.2 64.6C345.2 64.6 345.2 64.6 345.3 64.6C345.1 63.8 345.4 62.8 346.1 62.3C346.4 62.1 346.8 61.9 347.1 61.8C347.5 61.7 347.9 61.6 348.3 61.6C348.3 61.6 348.3 61.6 348.4 61.6C347.7 60.8 347.5 59.7 347.9 58.7C348.3 57.9 348.9 57.3 349.5 56.7C350.2 56 350.4 55.1 350 54.2C349.7 53.7 349.2 53.3 348.9 52.8C348.5 51.8 349.3 50.9 349.8 50C350.8 48.1 350.2 45.4 348.9 43.6C347.6 41.9 345.9 40.6 344.1 39.6C344.2 39.3 344.3 39.1 344.5 38.8L337.8 35.8L330.5 32.2L322.1 30.5L313.4 30.6L304.9 30.1L296.4 30.2L287.8 30.3L279.3 31.4L270.8 33.1L263 36.9L255 40.1L248.1 45.3L240.5 49.2L233.2 53.9L228.1 60.9L222 66.8L215.9 72.9L212.1 80.7L207.8 88.1L204.9 96.2L200.6 103.8L199.6 107.6L200.1 108.4H200.3C203.1 107.8 206.8 101.9 209.4 100.8C212 99.7 215.4 99.3 217.7 101C217.6 101.2 217.5 101.5 217.4 101.7C217.4 101.8 217.4 101.9 217.4 102C217 104.5 219.4 107.2 219.4 110C219.4 110.4 219.3 110.7 219.3 111.1C219.3 111.2 219.3 111.3 219.2 111.4C219.2 111.5 219.2 111.6 219.1 111.8C219.1 112 219.1 112.2 219 112.3C219 112.6 219 112.8 219 113.1C219.2 114.6 220.2 115.9 221 117.3C222.5 119.8 223.1 122.6 222.9 125.4C222.9 125.7 222.9 126 222.8 126.3C222.8 126.6 222.7 126.8 222.7 127.1C222.7 127.3 222.6 127.4 222.6 127.6C222.6 127.8 222.5 127.9 222.5 128.1C222.3 128.7 222.1 129.3 222 129.9C221.9 130.5 221.8 131.1 221.7 131.7V131.8C221.7 133.2 222.5 134.4 223.8 134.9C226.7 135.7 230.3 136.6 231.3 139.5C231.3 139.6 231.4 139.8 231.4 139.9C231.4 140 231.4 140.2 231.5 140.3C231.5 140.4 231.5 140.5 231.5 140.6C231.5 140.6 231.5 140.7 231.5 140.8C231.5 140.9 231.5 141 231.5 141C231.4 141.5 231.2 142 230.7 142.2C230 142.4 229.2 142.3 228.6 141.9L222.3 139.2C220.8 138.6 219.2 137.9 217.8 138.3C217.5 138.4 217.3 138.5 217.1 138.6C216.5 139 216.2 139.5 216.1 140.2C216 140.8 216.1 141.4 216.4 141.9C217.1 142.9 218.7 143.3 218.8 144.5C218.8 144.6 218.8 144.6 218.8 144.7C218.7 145.3 218.2 145.9 218 146.4V146.5C218 146.7 218 146.8 218.1 147C218.5 147.6 219.2 147.9 219.8 147.6C220.3 147.3 220.9 147 221.5 146.8C222.6 146.6 223.8 147.5 224.8 148.2C225.8 148.9 227.2 149.5 228 148.6C228.9 147.6 228 145.8 228.9 144.8C230 143.5 232.5 145.3 233.9 144.3C234.3 144 234.5 143.6 234.6 143.2C234.6 143.2 234.6 143.1 234.6 143C234.7 141.9 234.3 140.6 234.5 139.4C234.5 139.3 234.5 139.2 234.5 139.1C234.5 138.9 234.6 138.7 234.7 138.5C236 138.3 237.3 138.8 238.2 139.8C238.8 140.5 239.1 141.4 239.1 142.3V142.4V142.5C239.1 142.7 239.1 142.8 239 142.9C239 143 238.9 143.2 238.9 143.3C238.7 143.9 238.3 144.4 238.1 145C238.1 145.1 238.1 145.2 238.1 145.2C238.1 145.4 238 145.6 238.1 145.8C238.3 146.5 238.7 147.2 239.3 147.7L244.8 153.2C245.1 152.9 245.2 152.6 245.2 152.2C245.3 151.4 244.9 150.4 244.4 149.6C243.7 148.5 242.6 147.5 242.3 146.2C242.2 145.8 242.2 145.3 242.2 144.9C242.2 144.9 242.2 144.8 242.2 144.7C242.4 143.5 243.3 142.5 244.5 142.2C244.7 142.1 245 142.2 245.2 142.3C245.4 142.5 245.5 142.7 245.5 143C246 146.2 246.9 149.5 249.3 151.9C251.6 154.2 255.5 155 257.8 153C258.3 152.5 258.8 151.9 259.3 151.4C262.1 148.6 266.6 148.1 270.5 149.3C270.9 149.4 271.2 149.6 271.5 149.9C271.7 150.1 271.8 150.3 271.8 150.6V150.7C271.8 151.2 271.7 151.7 271.5 152.2C271 153.5 270.8 154.1 270.3 155.3C270.1 156 269.7 156.5 269.1 156.9C268.3 157.3 267.3 156.6 266.4 156.4C265 156.1 263.5 156.7 262.8 157.9C262.6 158.2 262.5 158.5 262.4 158.9C262.4 158.9 262.4 158.9 262.4 159C262.4 159.1 262.4 159.2 262.4 159.3V159.4C262.2 160.3 262.4 161.3 263 162.2C263.2 162.6 263.5 163.1 263.5 163.5C263.5 163.5 263.5 163.5 263.5 163.6C263.5 163.7 263.5 163.8 263.4 163.9C263.1 164.2 262.8 164.3 262.4 164.2C260.7 164.2 258.9 163.8 257.2 163.9C255.4 163.9 253.8 164.8 252.9 166.3C252.7 166.8 252.5 167.4 252 167.5C251.7 167.5 251.5 167.5 251.3 167.4C251.3 167.4 251.3 167.4 251.2 167.4C249.5 167.2 247.9 168.3 247.6 169.9V170C247.6 170 247.6 170 247.6 170.1V170.2C246.8 170.5 245.8 169.8 245.2 169C244.7 168.1 244.1 167.3 243.3 166.7C241.8 165.7 239.9 166.7 238.2 166.2C237.5 165.8 236.8 165.6 236.1 165.5C235.4 165.5 234.8 166.1 234.2 166.5C234.2 166.5 234.2 166.5 234.1 166.5C233.5 166.9 232.6 166.8 232.2 166.1L232 169.3V169.4C230.6 168.4 228.8 168.1 227.1 168.6H227L231.9 172.3C232.1 172.4 232.2 172.6 232.3 172.7C232.4 172.8 232.4 172.9 232.4 173.1V173.2C232.4 173.6 232 174 231.7 174.3C231.3 174.7 231 175.3 230.8 176C230.8 176.1 230.8 176.1 230.8 176.2C230.7 176.9 230.8 177.7 231.4 178.2C232.2 178.8 233.2 178.9 234.1 178.5L238.3 177.5V177.4C238.4 176.7 237.7 176.1 237.3 175.4C236.9 174.9 236.8 174.2 236.9 173.6C236.9 173.5 236.9 173.5 236.9 173.4C237 172.9 237.3 172.4 237.8 172C238.3 171.7 239 171.6 239.6 171.8C239.6 171.8 239.6 171.7 239.5 171.7C239.3 171.3 239.3 170.8 239.3 170.4C239.3 170.2 239.3 170 239.3 169.9C239.3 169.7 239.4 169.5 239.5 169.2L242.1 169.9C242.4 169.9 242.7 170.1 242.9 170.3C243.1 170.6 243 171.1 243 171.5C243 172.5 243.6 173.4 244.5 173.9C245.3 174.3 246.3 174.5 247.2 174.5C247.6 174.5 248 174.6 248.3 174.9C248.5 175.1 248.6 175.4 248.6 175.7C248.6 175.9 248.6 176.1 248.6 176.3C248.6 176.4 248.6 176.5 248.6 176.5C248.6 176.6 248.6 176.7 248.5 176.8C248.3 177.5 248 178 247.4 178.5C246.6 179.1 245.7 179.6 244.8 179.9C242.6 181 240.9 182.8 239.8 185C238.3 185.2 236.7 185.5 235.2 185.7C232.8 186.1 230.3 185.8 228.1 184.7C226.2 184 225.3 183.6 223.5 182.9C222.1 182.4 220.7 181.7 219.6 180.7C218.3 179.7 217.6 178.1 217.6 176.5C217.6 176.4 217.6 176.4 217.6 176.3V176.2C217.6 176 217.8 175.8 218 175.7C218.2 175.7 218.4 175.7 218.6 175.8C219.9 176.2 220.5 176.1 221.8 176.5C221.8 176.5 221.8 176.4 221.7 176.3C221.1 175.1 220.3 174 219.2 173.3C217.1 172.2 215.3 174 214.1 175.7C214.1 174.6 213.5 173.5 212.4 173.1C211.9 173 211.4 173 210.9 173.1C208.9 173.5 206.8 173.6 204.8 173.4L207.8 180.4L208.5 184L213 190.6L216.7 197.8L222.2 203.7L227 210.2L233.1 215.5L238.9 221.1L245.3 226L252.3 230.1L260.2 232.3L267.7 235L275.1 238.5L283.5 239.1L291.5 241.6L299.9 241L308.3 242.2L316.6 240.8L324.9 239.9L332.8 237.1L340.8 234.8L348.6 231.7L355.9 227.6L363 223.2L363.1 223.1C363.1 223.1 363.1 223.1 363 223.1C358 221.6 352.7 219.2 347.5 219.6C346.2 219.7 344.8 220 343.5 220C338.4 219.9 335.5 214.5 330.2 215.2C329.4 215.9 330.3 216.9 331.2 217.1C332.1 217.3 333.2 217.7 333 218.7C332.8 219.4 331.7 220.2 332.1 220.7C332.3 220.9 332.5 221 332.7 221C333.7 221.2 334.2 221.3 335.2 221.5C334.1 222.3 332.9 222.8 331.8 223.1C331.6 223.1 331.5 223.2 331.3 223.2C331.1 223.2 330.9 223.3 330.7 223.3C329.4 223.4 328.1 223.2 327.1 222.5C325.4 221.5 324.5 219.4 322.3 219C322 219 321.8 218.9 321.5 218.8C320.7 218.3 321.6 216.9 322.5 216.3C323.5 215.6 324.6 215.1 325.8 214.8C326.2 214.7 326.5 214.6 326.9 214.6H327L322.5 213C321.8 212.7 321.1 212.5 320.4 212.6H320.3C320.2 212.6 320.2 212.6 320.1 212.6C319.4 212.7 318.8 213.2 318.5 213.8C318.2 214.4 318.4 215.3 317.8 215.7C317.7 215.7 317.6 215.8 317.5 215.8H317.4C317.2 215.8 317.1 215.8 316.9 215.8L313.3 215.7C313.1 215.7 312.9 215.7 312.7 215.6C312.4 215.3 312.3 215 312.3 214.6C312.3 213.6 312.4 212.5 312.6 211.5C311.9 211 310.6 210.6 309.9 210.1V210.2C310.1 210.9 310.1 211.6 310 212.3C309.8 213.1 309.2 213.7 308.4 213.9C308.1 213.9 307.8 213.9 307.6 214H307.5C307.3 214 307.2 214.1 307.1 214.2C306.8 214.6 307 215.1 306.8 215.6C306.7 215.9 306.4 216.1 306.1 216.2C305.6 216.3 305.1 216.2 304.7 216C299.9 213.9 297.5 212.8 292.7 210.6C292.5 210.5 292.3 210.4 292.2 210.2C291.8 209.7 292.3 208.9 292.5 208.2C292.7 207.2 292.2 206.2 292.1 205.2C292 204.4 292.5 203.3 293.2 203.1C293.4 203.1 293.5 203.1 293.7 203.1C294.4 203.4 294.5 204.4 295.1 204.8C295.3 205 295.6 205 295.9 205H296C296.4 204.9 296.9 204.6 297.2 204.2C297.6 203.5 297.9 202.8 298 202V201.9C298.9 202.8 299.9 203.7 300.9 204.5C301.6 205.1 302.3 205.5 303.1 205.8C303.4 205.8 303.7 206 303.9 206.2C304.4 206.8 303.6 207.9 302.8 208.4C302 208.9 301.1 209.6 301.2 210.5C302.8 210.9 304.5 211 306.1 210.9C306.3 210.9 306.6 210.8 306.8 210.8C306.9 210.8 306.9 210.8 307 210.8C307.5 210.7 308 210.6 308.4 210.4C309.7 210 311 209.4 312.2 208.6C312.4 208.5 312.6 208.4 312.7 208.2C313 207.6 312.2 207.2 312.3 206.5C312.4 206.1 312.7 205.9 313 205.8C313.1 205.8 313.2 205.8 313.3 205.8C313.7 205.8 314.1 206 314.5 206.3L317.5 208.2C317.7 208.4 318 208.5 318.4 208.5C318.4 208.5 318.4 208.5 318.5 208.5C319 208.4 319.4 207.9 319.8 207.6C320 207.5 320.2 207.4 320.5 207.3C320.6 207.3 320.6 207.3 320.7 207.3C321 207.3 321.3 207.3 321.5 207.3C321.9 207.3 322.3 207.4 322.7 207.4C323.2 207.4 323.7 207.4 324.1 207.3C324.3 207.3 324.4 207.2 324.6 207.2C324.8 207.2 325 207.1 325.1 207C325.3 206.9 325.4 206.9 325.6 206.8C326.9 206.3 328 205.5 328.8 204.4C329.2 204 329.4 203.5 329.4 203C329.4 202.6 329.2 202.2 328.9 201.9C328.4 201.2 327.7 200.6 327 200.1C326.3 199.7 325.7 199.2 325.2 198.6C324.3 197.2 324.5 195.3 325.7 194.1C325.3 193.4 324.4 193.4 323.6 193.7C323.6 193.7 323.6 193.7 323.5 193.7C323.3 193.8 323.1 193.9 322.9 194C322 194.7 321.4 195.7 320.5 196.3C318.8 197.4 316.4 197.3 315 198.5C313.6 199.7 313.6 201.7 312.7 203.3C312.6 203.6 312.4 203.8 312.1 203.8H312C311.7 203.8 311.5 203.5 311.2 203.3C310.8 203 310.4 203 309.9 203.1C309.8 203.1 309.7 203.1 309.6 203.1C308.9 203.3 308.2 203.6 307.5 203.6C307.5 203.6 307.5 203.6 307.4 203.6C307.2 203.6 307 203.6 306.8 203.6C305.2 203.3 305 201.3 304.2 199.9C303.4 198.4 301.8 197.4 300.1 197.3C301.3 195.9 301.5 193.9 300.7 192.3C300.2 191.7 299.9 191.1 299.8 190.4C299.8 189.1 301 187.9 302.1 187.1C302.1 187.1 302.1 187.1 302.2 187.1C302.2 187.1 304.3 187.5 304.6 187.5C307.2 188 309.8 188.2 312.5 188.1C312.7 188.1 313 188 313.3 187.9C313.4 187.9 313.5 187.8 313.6 187.8C314.1 187.5 314.6 187.2 314.4 186.7C314.1 186.7 313.9 186.7 313.7 186.6C313 186.3 312.7 185.5 313 184.8C313.2 184.4 313.6 184.1 313.6 183.7C313.7 183.1 313.1 182.8 312.8 182.3C312.5 181.9 312.4 181.1 312.8 180.9C312.8 180.9 312.8 180.9 312.9 180.9C313.3 180.9 313.3 181 313.7 181C314.9 180.9 316.1 180.8 317.3 180.6C317.7 180.5 318.1 180.5 318.5 180.4C319 180.3 319.6 180.2 320.1 180.1C320.8 180 321.4 179.8 322.1 179.6C322.8 179.4 323.4 179.3 324.1 179.1C327.7 178.2 331.2 177 334.4 175.7C334.8 175.6 335.2 175.4 335.5 175.1C335.8 174.8 336 174.4 336.1 174C336.6 172.9 337.7 172.2 338.8 171.8C339 171.7 339.1 171.7 339.3 171.6H339.4C339.6 171.5 339.8 171.5 340 171.4C340.3 171.3 340.6 171.3 340.9 171.2C341.2 171.1 341.5 171.1 341.7 171C342 170.9 342.3 170.9 342.5 170.8C342.7 170.8 343 170.7 343.2 170.6C343.5 170.5 343.9 170.4 344.2 170.3C345.6 169.8 346.9 169.1 347.4 167.8C347.7 166.7 347.8 165.6 347.7 164.5C347.7 163.3 348.4 162.3 349.5 161.9C350.8 161.6 351.9 162.9 352.2 164.1C352.5 165.4 352.3 166.7 352.8 167.9C353.2 168.7 353.8 169.3 354.6 169.7C355.3 170 356.1 170.1 356.8 170C357 170 357.1 169.9 357.2 169.9C357.4 169.8 357.5 169.8 357.7 169.7C358.6 169.2 359.1 168.2 358.8 167.2C358.8 167.2 358.8 167.2 358.8 167.1C361 167.9 363.4 168.6 365.7 168.3C365.8 168.3 366 168.3 366.1 168.2C366.3 168.1 366.5 168.1 366.8 168C367.1 167.9 367.4 167.8 367.6 167.7C369.2 166.8 370.4 165.4 371 163.7C371.5 162 371.8 160.3 371.8 158.6C371.7 156.7 371.6 155.1 370.4 154.5ZM314.7 223.6C314.4 224.2 313.8 224.5 313.2 224.4L313.3 224.3C312.8 223.8 312.2 223.5 311.5 223.6C311.9 223 312.5 222.7 313.1 222.7C313.7 222.7 314.2 222.9 314.8 223.1C314.8 223.3 314.7 223.5 314.7 223.6ZM317.2 222.1C317.3 221.6 317.6 221.2 318 220.9C318.4 220.6 319 220.6 319.4 220.9C319.8 221.1 320.1 221.5 320.5 221.7C321.2 222 322 222.2 322.7 222C323.2 221.9 324 221.8 324 222.3C324 222.6 323.7 223 323.4 223.2C322 224.4 320.1 224.6 318.4 223.9C318.2 223.5 317.9 223.3 317.6 223.1C317.4 223.1 317.2 223 317.1 222.8C317 222.6 317 222.3 317.2 222.1ZM229.7 62.8C230.8 61 231.4 60 232.6 58.2C233.3 56.9 234.2 55.8 235.2 54.7C235.9 54 236.7 53.4 237.5 52.9C238.5 52.3 239.6 51.9 240.7 51.8C241.7 51.7 242.7 52.3 243.1 53.2C243.3 54.1 243 55.1 242.3 55.7C240.9 57.4 238.9 58.6 237.5 60.3C236.4 61.6 235.8 62.8 234.2 63.7C233.3 64.2 231.1 66.3 230.4 66.5C227.8 67.1 229 63.8 229.7 62.8ZM287 215.8C286.6 217.1 285.2 217.9 283.9 217.6L285.6 218.4C283.5 219.2 281.5 218.3 279.5 218.3C278.5 218.4 277.5 218.7 276.6 219C275.4 219 274.2 218.9 273 218.5C267.2 217.3 261.5 216 255.9 214.6C253 214 250.1 213.1 247.3 211.9C246.4 211.6 245.7 211 245.2 210.3C244.6 209.5 244.7 208.4 245.3 207.7C245.7 207.4 246.2 207.4 246.7 207.2C248 206.6 248 204.6 247.8 203C250.6 203.3 251.9 203.5 254.7 203.8C255.2 203.4 255 202.5 254.8 201.8C254.4 201.2 254.2 200.5 254.2 199.8C254.4 199 255.1 198.5 255.9 198.5C256.7 198.6 257.4 198.8 258.1 199C260.7 199.6 263.3 198.4 266 197.9C268.2 197.6 270.3 197.5 272.5 197.5C273.7 197.6 275 197.2 275.8 196.3C276.7 195.2 276.5 193.4 277.6 192.5C278.4 191.9 279.6 192.1 280.6 192.4C281.9 192.8 283.4 193.3 284.1 194.6C284.4 195.3 284.5 196.1 284.5 196.9C284.5 199.1 284.5 201.5 282.9 203.1C282.3 203.7 281.5 204.1 280.8 204.6C280.1 205.1 279.7 206 279.7 206.9C279.9 207.3 280 207.7 280 208.1C280 208.7 279.5 209.2 279.3 209.8C278.5 211.6 280.1 213.5 281.9 214.1C283.6 214.6 285.6 214.5 287.1 215.5C287.1 215.6 287.1 215.7 287 215.8ZM297.8 124.8C296.9 128.7 296.4 130.6 295.5 134.5C295.4 135.3 295.1 136.1 294.6 136.7C294.1 137.2 293.4 137.6 292.7 137.9C290.7 138.5 288.9 139.4 287.2 140.5C285.7 141.8 284.4 143.2 283.2 144.8C282 146.3 280.3 147.4 278.3 147.7C277.5 147.7 276.6 147.7 275.8 147.5C271.4 146.8 267 146.7 262.5 147.1C261.8 147.2 261.2 147.2 260.5 147.1C259 146.7 257.9 145.5 257.8 143.9C257.7 142.6 258.4 141.4 258.2 140.1C257.6 137 252.7 136.9 251.2 134.1C251 133.6 250.7 133.1 250.3 132.7C249.6 132.4 248.8 132.6 248.4 133.2C248.1 133.8 247.9 134.6 247.9 135.3C244.6 133.7 241.2 132.4 237.7 131.4C236.5 131.2 235.3 130.8 234.2 130.1C232.4 128.8 232 126.3 231.9 124.2L233.6 124.7C233.6 124.4 233.6 124 233.4 123.8C231.1 118.5 229.3 113.1 228.1 107.5C227.7 105.4 226.2 102.7 227.7 101.2C228.2 100.6 228 99.8 227.4 99.3C227.4 99.3 227.4 99.3 227.3 99.3C226.6 98.9 225.9 98.6 225.1 98.6L218.9 97.8C218.4 97.8 218 97.6 217.6 97.3C217 96.7 217.4 95.8 217.9 95.1C223.6 88.4 232.1 85 236.8 77.4C237.5 76.1 238 74.7 238.5 73.3C239.4 71 240.6 68.8 241.9 66.7C242.4 65.8 243.1 65 243.9 64.2C245.9 62.5 248.8 61.9 250.3 59.9C252 57.7 251.6 54.2 254.3 52.9C255.9 52.1 258 52.6 259.3 51.4C260.4 50.4 260.3 48.8 261 47.5C261.9 45.9 263.9 45.1 265.6 44.7C269.2 43.7 273 43.6 276.7 44.4C277.3 44.5 277.8 44.7 278.3 45.1C279.2 46.1 278.7 47.8 278.5 49.2C278.1 52.4 279.8 55.3 279.5 58.5C279.2 61.9 276.5 65.2 277.4 68.4C275.6 70.3 273.7 72.3 273 74.7C271.8 78.9 274.2 83.3 272.7 87.4C272.3 88.5 271.7 89.4 271.2 90.5C270.5 92.2 270.5 94 271 95.8C271.3 97 272.2 97.9 273.3 98.3C273.8 98.3 274.3 98.4 274.7 98.5C275.7 98.9 276 100.2 276.4 101.2C277.4 103.3 279.8 104.3 282.1 105.1C287.1 106.9 289.7 107.8 294.7 109.6C295.1 109.7 295.4 109.9 295.6 110.2C296 110.7 295.7 111.5 295.5 112.1C295 113.7 295.1 115.3 295.7 116.9C296.3 118.4 297.4 119.6 297.7 121.2C298.3 122.3 298.2 123.6 297.8 124.8Z" fill="#E8E8E8"/>
</svg>
