<svg width="518" height="521" viewBox="0 0 518 521" fill="none" xmlns="http://www.w3.org/2000/svg">
<g clip-path="url(#clip0)">
<path d="M438.8 480.1C424.5 486.9 409.5 492.4 394.2 496.5L385.6 498.7C382.7 499.3 379.8 499.8 376.9 500.4C374 501 371.1 501.6 368.1 501.8L359.2 502.7C357.7 502.8 356.2 503.1 354.7 503.1L350.2 503.2L341.2 503.4C338.2 503.3 335.2 503 332.2 502.8C329.2 502.7 326.2 502.4 323.2 501.9C317.3 500.8 311.2 500.2 305.4 498.3L296.7 495.9C293.8 495 290.9 494 288.1 492.8C281.1 490.1 274.3 486.7 267.8 482.8C263.9 480.5 260.2 478.1 256.6 475.8C255.8 475.3 255.1 474.8 254.3 474.4C245.5 468.9 236.9 464 227.7 460.4C217.6 456.4 207.1 453.4 196.5 451.3C175.1 447.3 152.9 447.7 130.9 450.6L126.8 451.1L122.7 451.9L114.5 453.4C109 454.4 103.6 455.8 98.1 457C92.6 458.3 87.3 460.1 81.8 461.5C76.3 462.9 71 464.9 65.6 466.5C59.7 468.5 53.8 470.6 47.9 472.8C45 470.8 42.2 468.6 39.4 466.4C46.7 462.7 54.1 459.2 61.6 455.9C67 453.7 72.3 451.3 77.8 449.3C83.3 447.3 88.8 445.3 94.4 443.6C100 441.9 105.6 440.1 111.3 438.8L119.9 436.8L124.2 435.9L128.6 435.2L137.4 433.7C140.3 433.2 143.3 433 146.2 432.7C152.1 431.9 158 431.7 164 431.5C175.9 431.5 188 432.1 199.8 434.3C211.7 436.4 223.3 439.7 234.5 444.3C245.7 448.8 256.4 455.1 266 461.4C267.6 462.4 269.1 463.4 270.6 464.4C275 467.2 279.3 469.8 283.6 472.2C287.2 474.2 290.8 475.9 294.6 477.5C297.1 478.6 299.6 479.5 302.1 480.4L309.9 482.7C315 484.5 320.4 485.1 325.7 486.3C347.2 489.9 369.5 488.2 391.2 483.5C396.7 482.5 402 480.8 407.4 479.4C412.8 478 418.1 476 423.5 474.3C423.7 474.2 424 474.1 424.2 474C429.7 476.4 434.6 478.4 438.8 480.1Z" fill="#5D7350"/>
<path d="M39.5 466.6C42.3 468.8 45.1 470.9 48 473C45.8 473.8 43.6 474.6 41.5 475.5C28.3 480.6 15.3 486.1 2.2 491.8C1.4 492.1 0.499997 491.7 0.199997 490.9C-0.100003 490.2 0.199997 489.5 0.799997 489.1C11.4 482.2 22.8 475.8 34.7 469.2C36.2 468.3 37.8 467.4 39.5 466.6Z" fill="#5D7350"/>
<path d="M516.6 431.6C498.4 445.8 479.1 458.6 458.9 469.9C454.1 472.6 449.3 475.1 444.3 477.5C442.5 478.4 440.6 479.3 438.8 480.1C434.6 478.3 429.6 476.3 424.2 474.3C426.8 473.3 429.5 472.3 432.1 471.3C434.5 470.4 436.8 469.5 439.2 468.5C444.4 466.2 449.7 464.2 454.8 461.7C475.4 452 495.4 441.1 514.8 429.1C515.6 428.7 516.5 429 516.9 429.7C517.2 430.3 517.1 431.1 516.6 431.6Z" fill="#5D7350"/>
<path d="M256.8 475.9C260.4 478.2 264.2 480.6 268 482.9C264.2 485.9 261 488.6 257.8 490.7C249.4 496.2 242.3 500.7 236.6 503.4C228.5 507.1 220.1 510 211.4 512C209.9 512.4 205.5 513.5 199.7 514.5C188.7 516.4 177.5 517.3 166.3 517.3C162 517.3 158.1 517.2 154.4 516.9C144.8 516.5 135.3 515.6 125.9 514C116.6 512.4 107.5 510.2 98.5 507.3C89.9 504.7 81.5 501.5 73.5 497.5C66.9 494.1 60.6 490.3 54.6 486C50 482.7 45.6 479.2 41.4 475.5C39.1 473.4 36.8 471.3 34.5 469.2C24 459 14.2 448 5.2 436.4C5.2 436.3 5.6 435.9 5.7 435.9C5.8 435.8 5.9 435.8 6 435.9C16.5 446.9 27.6 457.1 39.4 466.7C42.2 468.9 45 471 47.9 473.1C51.6 475.8 55.5 478.3 59.5 480.6C66.9 484.8 74.4 488 74.4 488C82.5 491.5 90.8 494.4 99.3 496.7C108.6 499.3 117.9 501.3 127.4 502.8C142.6 505.3 154 507.1 169.6 506.5C181.9 506.1 194.1 504.2 206 500.8C216.2 497.7 226 493.5 235.4 488.3C238.2 486.7 243.8 482.6 243.8 482.6C247 480.2 249.9 477.6 254.3 474.5C255.3 475 256 475.4 256.8 475.9Z" fill="#7C5170"/>
<path d="M516.8 519.4C516.3 520 515.5 520.2 514.8 519.8C495.5 508.1 475.4 497.5 454.8 487.2C454.5 487.1 454.1 486.9 453.8 486.7V486.6C453.8 486.6 448 483.9 438.8 480C434.6 478.2 429.6 476.2 424.2 474.2C415.4 470.8 405.3 467.2 394.7 464C377 458.7 367.5 457.8 362.6 457.4C348.2 456.1 333.8 456.8 319.6 459.5C303.7 462.7 292.2 467.3 283.5 472.3C279.2 469.9 274.9 467.3 270.5 464.5C276.3 461.3 282.2 458.5 288.3 456C291.1 454.8 294 453.9 296.8 452.9L305.6 450.5C311.4 448.6 317.4 448 323.4 447C326.4 446.3 329.4 446.4 332.4 446.1C335.4 445.8 338.4 445.6 341.4 445.5L350.4 445.7L354.9 445.8C356.4 445.8 357.9 446.1 359.4 446.2L368.3 447.1C371.3 447.4 374.2 448.1 377.1 448.6C380 449.1 382.9 449.6 385.8 450.3L394.4 452.5C406.8 458.5 419.5 464.8 432.3 471.3C436.3 473.3 440.4 475.4 444.5 477.6C450 480.5 455.5 483.4 461 486.3C480.3 496.6 498.9 507 516.8 517.4C517.2 517.9 517.3 518.8 516.8 519.4Z" fill="#7C5170"/>
<path d="M120.9 446C121.4 447.3 120.9 448 119.5 448.1C118.9 448.3 118.2 448.2 117.6 447.8C117.3 448.4 117 448.9 116.6 449.4C116.3 449.9 115.7 450.1 115.2 450.1C114.5 450 113.8 449.7 113.2 449.2C112.6 448.7 112.2 448 112.1 447.2C111.9 446.7 111.7 446.3 111.4 445.8C111.1 445.4 110.9 444.9 110.7 444.5C109.7 442.7 108.7 440.9 107.7 439.1C106.8 437.3 105.7 435.6 104.4 434C103.8 433.2 103.3 432.5 102.8 431.7C102.3 430.9 101.8 430 101.3 429.2C100.2 427 99.1 424.8 97.9 422.6C96.7 420.4 95.6 418.2 94.5 416C93.7 414.3 93 413.3 92.4 413C91.2 412.7 89.9 412.7 88.7 413H86.7C82.9 412.8 79.1 412.9 75.3 413.2C71.5 413.5 67.8 413.9 63.9 414.3C61.4 414.5 59 414.6 56.7 414.8C54.4 415 52 415.1 49.6 415.3C49 416.1 48 417.8 46.5 420.4C45 423 43.4 425.6 41.6 428.3C39.8 431.1 38.1 433.6 36.5 435.9C34.8 438.2 33.5 439.6 32.6 440.1C31.6 440.7 30.6 441.3 29.6 442C28.6 442.7 27.7 443.6 27 444.6C26.6 444.9 26.1 445.1 25.6 444.9C25.2 444.8 24.8 444.6 24.5 444.3C24.1 444.1 23.7 443.8 23.4 443.5C23 443.2 22.6 443.1 22.1 443.2C21.9 443.3 21.8 443.1 21.9 442.7C21.9 442.3 22 442 22.1 441.6C22.4 440.7 22.7 439.9 23.1 439.1C23.5 438.3 23.9 437.5 24.4 436.8C24.8 436.2 25.1 435.6 25.4 435C25.7 434.4 26 433.8 26.3 433.2C26.4 432.9 26.9 431.8 27.8 429.8C28.7 427.8 29.6 425.7 30.6 423.4C31.6 421.1 32.4 419 33.1 417C33.8 415 34.1 414 33.9 413.8H32.6C32.2 414 31.8 414 31.5 413.9C31 413.9 30.5 413.8 30 413.5C29.5 413.3 29 413 28.5 412.9C27.9 412.4 27.8 412 28.1 411.6C28.4 411.2 28.6 410.7 28.7 410.2C27.8 410 27 409.6 26.3 409.1C26.1 408.9 26.1 408.2 26.3 407C25.3 407.2 24.2 407.3 23.1 407.4C22 407.5 20.8 407.6 19.5 407.8C19.9 407.2 20.5 406.8 21.1 406.6L22.6 406.3C24.8 406.1 27 405.7 29.1 405.1C31.3 404.5 33.6 404.6 35.7 405.5C37.4 405 39 404.4 40.5 403.6C42.1 402.8 43.4 401.6 44.4 400.1C45.6 398.2 46.8 396.4 48 394.7C49.2 393 50.4 391.2 51.6 389.3C52.1 388.8 52.5 388.2 52.9 387.6C53.3 387 53.9 386.5 54.6 386.2C56.4 383.9 58 381.5 59.5 379C60.9 376.5 62.5 374 64.1 371.6C64.7 370.6 65.2 369.7 65.8 368.9C66.4 368.1 67 367.1 67.7 366.2C69.1 364.4 70.2 362.4 70.8 360.2C70.4 359.6 70.2 359 70.1 358.3C70 357.6 69.9 357 69.7 356.3C69.6 355.7 69.7 355.2 70.1 354.7C70.4 354.3 71 354.1 71.5 354.4C73.2 355.3 75.1 355.8 77.1 355.8C79 355.7 80.9 356.1 82.7 356.7C84 357.2 85.3 357.8 86.5 358.6C87.7 359.4 88.6 360.5 89.1 361.9C89.6 363.1 90.1 364.3 90.7 365.4C91.3 366.5 91.7 367.8 91.8 369L92.7 371.3C93 372.1 93.1 373 93.1 373.9C93.2 374.2 93.2 374.6 93.2 375C93.2 375.4 93.4 375.8 93.8 376.1C96.2 380.1 97.8 384.4 98.5 388.9L99.3 391.1C99.5 391.8 99.8 392.4 99.9 393.1C100.6 393.8 101 394.7 101.3 395.7C101.6 396.6 101.8 397.6 101.9 398.5V398.6C102.6 399.6 103.2 400.7 103.6 401.8C104 402.9 104.4 404 104.9 405L107.1 410.6C107.8 412.5 108.7 414.3 109.6 416C110.9 418.8 112.1 421.6 113.2 424.5C114.3 427.4 115.5 430.2 116.8 433C117.5 434.6 118.1 436.2 118.4 437.9C118.7 439.6 118.9 441.3 119.1 443H119.8C119.7 444.2 120.1 445.2 120.9 446ZM76.2 398.3C77.8 397.9 79.4 397.7 81.1 397.5C82.8 397.3 84.4 396.5 85.5 395.2C84.5 391.9 83.3 388.6 82 385.4C80.7 382.2 79.4 378.9 78.1 375.6C77.7 375.8 77.3 376.1 77 376.5C74.4 379.8 71.9 383.2 69.4 386.7C66.9 390.2 64.5 393.7 62.1 397.2C61.6 398.6 61.7 399.5 62.2 399.8C63 400.1 63.8 400.2 64.6 400C66.5 399.8 68.4 399.6 70.4 399.3C72.4 399 74.3 398.7 76.2 398.3Z" fill="#E8E8E8"/>
<path d="M182.8 431.8C183.3 432.3 183.3 432.7 182.9 433.1C182.6 433.5 182.2 433.9 181.8 434.2C180.4 435.1 178.8 435.8 177.1 436.2C176.9 436.2 176.7 436.3 176.5 436.4C175.7 436.6 175 436.8 174.3 437C173.6 437.2 172.8 437.5 172.1 437.8C171.4 438.2 170.7 438.6 169.9 438.7C169.2 438.8 168.4 439 167.7 439.1C164.1 439.5 160.4 439.8 156.8 440.2C153.2 440.5 149.5 440.6 145.9 440.4C141.8 440.6 137.7 440.8 133.7 441.1C129.7 441.4 125.5 441.6 121.3 441.7C120.6 441.8 120 441.9 119.4 441.9C118.7 441.9 118 441.7 117.5 441.3C116.4 441.3 115.4 440.7 114.7 439.8C114.1 438.9 113.2 438.2 112.2 437.9C110.3 437.2 109.2 436.6 108.8 436.1C108.4 435.6 108.5 434.4 108.9 432.5C109.2 431.2 109 429.8 108.3 428.6C107.6 427.4 107.7 426.4 108.6 425.6C109 425.2 109.3 424.8 109.4 424.2C109.4 423.7 109.4 423.2 109.2 422.7C108.8 421.4 108.7 420.1 108.9 418.8C109.1 417.6 109.3 416.3 109.6 415V413.6C108.7 411.5 109.2 409.9 111 408.9C111 408.5 111 408 110.9 407.6C109.7 407.1 108.9 405.8 109 404.5C108.9 401.8 108.9 399.2 108.9 396.7C108.9 394.1 109 391.5 109 388.9C107.5 387.5 107.2 385.3 108.4 383.6C108.9 382.7 109.2 381.7 109.5 380.7C109.7 379.7 110 378.7 110.3 377.6L110.4 377.9C110.4 377.7 110.3 377.6 110.3 377.6C110.1 376.7 110.1 375.7 110.2 374.7C110.3 373.7 110.3 372.8 110.3 371.8C110.4 369.3 110.5 366.9 110.5 364.5C110.6 362.1 110.5 359.7 110.3 357.2C110.7 355.8 111.6 355.4 113 356.1C113.6 356.4 114.3 356.5 115 356.3C115.7 356.2 116.4 356.3 117 356.7H118.4C118.9 356.7 119.3 356.8 119.8 356.8C122.4 357 124.3 357.6 125.4 358.7C126.6 359.8 127.4 361.7 127.9 364.5C128.5 365.1 128.7 365.9 128.5 366.6C128 368.2 127.8 369.9 127.9 371.7C128 373.4 127.7 375.1 127.3 376.8C127.2 377.8 127.1 378.7 127.1 379.5C127 380.4 126.9 381.3 126.6 382.2V382.8C126.8 385.6 126.7 388.4 126.4 391.1C126.1 393.9 125.8 396.7 125.6 399.5C125.4 401.9 125.1 404.3 124.7 406.7C124.3 409 123.9 411.4 123.5 413.9C123.4 414.5 123.3 415.1 123.4 415.7C123.4 416.3 123.4 417 123.3 417.6C123.8 418.7 123.8 419.9 123.2 420.9C122.7 422 122.4 423.3 122.3 424.6C123.6 424.3 124.9 424.3 126.2 424.5C127.4 424.7 128.7 424.5 129.8 423.7C130.3 423.3 131 423.3 131.5 423.7C133.1 424.7 134.9 425.2 136.8 425.1C138.6 425 140.4 424.8 142.2 424.5C144 424.2 145.8 424.1 147.6 424.1C149.3 424.1 151.1 424 152.8 423.8C153.3 423.6 153.8 423.6 154.2 423.8C155.5 424.7 157.1 425.2 158.8 425.2C160.4 425.2 162 425.1 163.7 425.1C165.1 425.1 166.6 425.3 168 425.7C169 426 170 426.1 171 426.1C172.2 425.9 173.5 426 174.7 426.2C175.9 426.5 177.1 426.9 178.3 427.3C178.5 427.5 178.8 427.7 179 427.9C179.2 428.1 179.5 428.2 179.7 428.2C181 428 181.8 428.4 182.1 429.3C181.9 430.2 182.3 431 182.8 431.8Z" fill="#E8E8E8"/>
<path d="M227.6 358.1C227.9 359.2 228 360.3 227.9 361.4C227.9 365.1 226.4 367.8 223.5 369.4C222.7 370.2 221.5 370.5 220.4 370.3C219.7 370.2 219 370.2 218.3 370.3C217.5 370.4 217 369.9 216.6 368.9C215.1 368.9 213.6 368.9 212.1 368.8C210.6 368.7 209.1 368.7 207.6 368.7H205.5C205.1 368.7 204.7 368.8 204.4 369C204.1 369.3 203.9 369.6 203.8 370C203.7 370.5 203.5 371.1 203.3 372C203.2 372.2 203.1 372.5 203 372.7C202.9 372.9 202.8 373.2 202.7 373.4C202.6 374.4 202.6 375.4 202.6 376.4V379.2C202.5 379.3 202.4 379.3 202.3 379.4C202.3 379.7 202.3 380 202.4 380.2C202.5 381.1 202.6 382.1 202.6 383C202.6 384.4 202.7 386 202.7 387.9C202.7 389.8 202.8 391.8 202.8 394C202.8 396.2 202.8 398.2 202.7 400.1C202.6 402 202.6 403.7 202.4 405.1C202.4 406 202.2 406.9 201.9 407.8C201.9 409 202 410.1 202.2 411.2C202.4 412 202.6 412.6 202.8 413.2C203 413.8 203.1 414.5 203.1 415.2C203 416.4 202.8 417.6 202.5 418.8C202.2 420.1 202.1 421.5 202.2 422.8C202.3 424.2 202.6 425.5 203.2 426.8C203.7 427.7 204 428.8 204.1 429.8C204.2 430.9 203.9 432 203.4 432.9C203.2 433.1 203.1 433.4 203 433.8C202.9 434.1 203 434.4 203.2 434.6C203.7 435.6 204 436.7 203.9 437.8C203.8 438.8 203.5 439.8 203.1 440.6C202.7 441.5 202.2 442.4 201.7 443.2C201.2 444 200.8 444.9 200.5 445.8C200.1 446.5 199.5 447 198.8 447.2C198.3 447.5 198.1 448 198.1 448.5C197.7 449.5 197 449.6 196 448.9C194.9 448.1 194.1 446.8 193.9 445.5C193.9 445.3 193.9 445.2 193.8 445.1C193 444.5 192.3 443.9 191.7 443.2C191.1 442.4 190.6 441.5 190.3 440.6C189.2 436 188 431.5 186.7 427.1C185.5 422.6 184.7 418 184.6 413.3C184.7 412.2 185.2 411.6 186.2 411.6C186 409.6 185.8 406.9 185.7 403.6C185.6 400.3 185.5 396.8 185.4 393.2C185.3 389.6 185.4 386.1 185.4 382.8C185.4 379.5 185.6 376.8 185.8 374.8C185.9 374.2 185.9 373.6 185.9 372.9C185.9 372.3 186 371.7 186 371C185.8 371 185.6 371 185.4 370.9C185.2 370.6 185 370.3 184.8 370V369.4H179.9C178.2 369.7 176.5 369.7 174.8 369.4H173.9C172.2 369.9 170.4 370.1 168.6 370C166.8 369.9 165 370.2 163.3 370.8C160.3 370.7 157.2 370.8 154.2 371.1L145.1 372C143.5 372.2 141.9 372.3 140.3 372.2C138.7 372.2 137.1 372.2 135.5 372.4C135.1 372.4 134.7 372.4 134.2 372.5C133.8 372.5 133.3 372.6 132.9 372.6C132.5 372.6 132.2 372.5 131.8 372.4C131.5 372.3 131.3 371.9 131.2 371.3C131.1 370.9 131.2 370.5 131.5 370.2C131.8 370 132.1 369.8 132.5 369.7L133.7 369.4C134.1 369.3 134.4 369.2 134.8 369C134.9 368.9 135.1 368.8 135.2 368.9L131.2 368C129.9 367.7 128.5 367.5 127.2 367.3C127.9 366.6 128.7 366.1 129.7 365.9C130.6 365.8 131.5 365.6 132.3 365.4C133 365.2 133.6 365 134.2 364.9C134.8 364.8 135.5 364.6 136.1 364.4C135.9 364.1 136 363.7 136.2 363.4C136.5 363.1 136.9 362.9 137.3 362.8C138.9 362.4 140.5 362.1 142 361.7C143.6 361.4 145.1 361.1 146.7 360.9C149.7 360.3 152.7 359.9 155.6 359.6C156.9 359.1 158.3 358.8 159.7 358.6C161.1 358.4 162.5 358.3 163.9 358.2C164.1 358.2 164.4 358.2 164.6 358.1C166.2 357.6 167.9 357.3 169.5 357.2C171.2 357.1 172.8 356.9 174.4 356.8C175.3 356.9 176.2 356.9 177.1 356.7C178 356.6 178.9 356.4 179.8 356.2C180.1 355.8 180.4 355.5 180.8 355.2C181.1 354.6 181.2 353.9 181.3 353.2C181.3 352.5 181.7 351.9 182.2 351.5C182.6 350.7 183 350.4 183.6 350.6C184.1 350.7 184.6 350.9 185.1 351.1C186.7 351.9 188.7 351.6 190.1 350.5C191 350.3 191.9 350.2 192.8 350.2C193.7 350.2 194.5 350.3 195.4 350.5C195.7 350.8 196.1 351 196.4 351.2C197.6 352 199 352.2 200.4 351.9C202.1 351.6 203.7 351.5 205.4 351.5C207.1 351.5 208.7 351.6 210.4 351.8C214.7 352.4 219 350.9 221.8 347.7L222.1 347.8C223.3 349.1 224.3 350.5 225.2 351.9C226.1 353.4 226.6 355 226.8 356.8C226.8 356.9 226.8 357 226.9 357.1C226.9 357.2 227 357.3 227 357.4C227.1 357.5 227.1 357.6 227.1 357.7C227.4 357.9 227.5 358 227.6 358.1Z" fill="#E8E8E8"/>
<path d="M292.6 432.2C292.8 432.6 292.9 433.1 292.8 433.5C292.8 433.9 292.4 434.2 291.9 434.4C289.5 436.8 286.4 438.5 283 439.1L273.1 440.8C268.6 441.6 264.2 442.1 259.7 442.5C255.3 442.9 250.8 443.5 246.3 444.2C245 444.4 243.7 444.6 242.4 444.7C241.1 444.8 239.8 444.8 238.5 444.5C238.1 444.4 237.7 444.4 237.4 444.4C237 444.4 236.5 444.4 236.1 444.2C234.6 443.9 233.2 443.2 232 442.2C230.8 441.1 230.1 439.6 230 437.9C229 437.2 228.5 436.1 228.6 434.9V433.1C228.6 432.5 228.3 431.9 227.9 431.5C227.4 430.4 227.3 429.3 227.4 428.2C227.5 427.1 227.5 426 227.3 424.8C226.9 422 226.6 419.3 226.3 416.6C226 413.9 225.8 411.2 225.6 408.4C225.3 404.5 225.3 400.6 225.5 396.7C225.7 392.9 225.7 389 225.6 385C225.6 384.5 225.6 384 225.7 383.4C225.8 382.8 225.8 382.3 225.8 381.8C225.7 380.1 225.7 378.4 225.7 376.7C225.7 375 225.9 373.2 226.4 371.6V369.7C226.4 369.1 226.7 368.5 227.1 368.1C227 366.9 226.9 365.7 226.8 364.5C226.7 363.3 226.6 362.2 226.4 360.9C225.9 360.6 225.5 360.3 225.2 359.8C224.9 359.4 224.9 358.9 225.4 358.3C225.7 357.9 226.2 357.7 226.7 357.7C227.2 357.7 227.7 357.8 228.1 358.1C228.5 358.7 229.2 359 230 358.9C230.7 358.7 231.3 358.4 231.9 358C232.7 357.5 233.6 357.4 234.5 357.7C235.7 358 237 358.3 238.1 358.6L241.6 359.5C244.2 359 246.7 358.6 249.2 358.2C251.7 357.8 254.3 357.7 256.8 357.9C258.6 357.4 260.4 357.2 262.2 357.2C264 357.2 265.9 357.1 267.8 356.9C268.8 356.8 269.8 356.8 270.8 356.9C271.8 357 272.8 356.9 273.8 356.8C274.2 356.7 274.7 356.7 275.1 356.7C275.5 356.7 275.8 357.1 276 357.6C276.2 358.1 276.1 358.6 275.6 358.6C275.2 358.6 274.9 358.7 274.5 358.9C274.1 359.1 273.9 359.2 273.9 359.3C273.9 359.4 274 359.5 274.1 359.6C274.2 359.7 274.4 359.8 274.5 359.8C274.6 359.8 274.7 359.9 274.7 360C275.3 360 275.9 360.1 276.5 360.4C276.9 360.6 277 361.2 276.7 362.2L276.8 362.3C276.8 362.9 276.5 363.5 276.1 364C275.7 364.4 275.2 364.8 274.7 365.1C274.4 365.7 274.2 366.2 273.9 366.8C273.6 367.4 273.1 367.8 272.4 367.9H271.1C268.7 369.6 265.9 370.7 263 371.2C259.9 371.7 256.7 372.4 253.7 373.4C250.7 374.4 247.6 375.2 244.4 375.7C244.3 375.8 244.2 375.8 244.2 375.8C244.2 375.8 244.1 375.8 244 376C243.6 378.8 243.3 381.5 243 384.1C242.7 386.7 242.4 389.5 242.1 392.2C242.6 392.6 243.2 392.8 243.9 392.8C244.5 392.8 245.2 392.9 245.8 392.9C246.6 392.5 247.4 392.3 248.2 392.3C249 392.3 249.8 392.1 250.6 391.9C254.4 391.1 258.3 390.8 262.2 390.8C266 390.8 269.9 390.7 273.8 390.5C275.8 390.3 277.9 390.8 279.7 391.8C280.9 392.6 281.1 393.4 280.3 394.4C280.1 394.6 279.9 394.8 279.7 395.1C280 395.4 280.3 395.7 280.6 396C281 396.3 281 396.6 280.5 397C279.5 397.8 278.6 398.8 277.8 399.9C277 401 275.9 401.9 274.7 402.4C272 403.4 269.2 404.3 266.4 404.9C263.6 405.5 260.9 406.1 258.1 406.5C255.1 407 252.1 407.5 249.2 408C246.3 408.5 243.4 409.3 240.6 410.4C240.5 412.9 240.5 415.4 240.5 417.8C240.5 420.3 240.2 422.8 239.5 425.2C239 426.6 239 428.1 239.4 429.5L249.3 428.2C251.1 427.7 252.9 427.2 254.6 426.5C256.2 425.9 258 425.5 259.7 425.4C261.6 425.2 263.6 425.2 265.6 425.3C267.6 425.4 269.6 425.7 271.5 425.9C273.5 426.2 275.5 426.3 277.6 426.2L283.7 425.9C285.8 425.9 288 426.2 290 426.9C291 427.1 291.9 427.7 292.5 428.5C292.8 430 292.9 431.1 292.6 432.2Z" fill="#E8E8E8"/>
<path d="M427.8 473.2C428.4 474.7 428.5 475.7 428.2 476.1C427.9 476.5 427 476.6 425.6 476.3C425.2 476.3 424.8 476.2 424.5 476C424.6 476.2 424.7 476.5 424.8 476.7C424.4 477 423.9 477 423.5 476.8C423.1 476.6 422.7 476.3 422.3 476.1C420.1 474.6 417.9 473.1 415.7 471.5C413.5 470 411.4 468.4 409.3 466.7L408.5 466.1L407.6 465.5C407.5 465.4 407.3 465.2 407.2 465.1C407.1 465 407 464.9 406.8 464.8C406.4 464.6 406 464.4 405.7 464C405.5 463.7 405.2 463.4 404.9 463.1C403.7 463 402.5 462.7 401.5 462.1C400.7 461.3 400.1 460.3 399.8 459.2L398.4 457.5C397.9 456.9 397.3 456.5 396.5 456.2C393.1 452.9 389.6 449.6 386 446.3C382.4 443.1 379 439.7 375.7 436.3C373.9 434.5 372.1 432.7 370.3 430.9C368.5 429.1 366.8 427.1 365.2 425.1C364.7 424.4 364 423.7 363.2 423.2C362.4 422.7 361.4 422.5 360.5 422.6C360.4 422.6 360.3 422.6 360.3 422.7C360.2 422.8 360.2 422.8 360.1 422.8C360 423.4 359.7 424 359.5 424.5C359.4 424.7 359.3 424.8 359.1 424.9C359 424.9 358.8 425.1 358.7 425.3C358.6 425.9 358.5 426.5 358.6 427.1C358.2 428.9 357.8 431.2 357.2 433.9C356.8 436.2 356.2 438.4 355.4 440.6C356.4 441.9 357.5 443.2 358.7 444.4C359.8 445.6 360.9 446.9 362 448.2C363 449.5 364 450.8 364.7 452.1C365.6 453.4 366.1 454.9 366.3 456.4C366.6 456.6 366.9 456.8 367.2 457.1C367.5 457.4 367.4 457.8 366.9 458.3C366.6 458.8 366.6 459.1 366.8 459.4C367 459.6 367.3 459.9 367.6 460C368.1 461.4 368.1 462.4 367.8 462.9C367.5 463.4 366.6 463.5 365.2 463.2C365 463.1 364.8 463.1 364.6 463.1C364.4 463.1 364.2 463 364 463C364.2 463.2 364.3 463.4 364.3 463.7C363.9 464 363.4 464 363 463.8C362.6 463.6 362.2 463.3 361.9 463C359.7 461.6 357.5 460.1 355.3 458.6C353.1 457.1 351 455.5 348.9 453.8C348.4 453.4 347.8 453 347.2 452.6C347 452.3 346.8 452 346.5 451.8C346.1 451.6 345.8 451.4 345.5 451.1L344.6 450.3C343.4 450.2 342.2 449.9 341.2 449.3C340.3 448.5 339.7 447.4 339.5 446.3C339 445.7 338.5 445.2 338.1 444.7C337.6 444.1 337 443.7 336.2 443.5C332.8 440.2 329.3 436.9 325.8 433.7C322.3 430.5 318.8 427.1 315.5 423.7C313.7 421.8 311.9 419.9 310.1 418.1C308.3 416.3 306.6 414.4 305 412.4C304.4 411.6 303.8 411 303 410.5C302.2 410 301.2 409.8 300.3 410C300.1 410 300 410 299.9 410.1C299.4 412 299.1 413.9 298.8 415.9C298.6 417.9 298.4 419.8 298.3 421.8C298.1 422.7 297.9 423.7 297.7 424.9C297.5 426.1 297.2 427.4 296.9 428.7C296.6 430 296.3 431.2 296 432.5C295.8 433.6 295.4 434.6 295 435.6C294.8 436.8 294.1 437.3 293 437C292.8 437 292.5 437 292.3 437.1V439.7C292.4 440.5 292.3 441.3 292 442C291.4 442.3 290.8 442.5 290.1 442.4C289.9 442.5 289.7 442.5 289.5 442.6C289 442.6 288.8 442.4 288.8 442.2V441.2L288.9 441.3L288.8 441.2C288.7 441 288.7 440.8 288.7 440.6C288.4 441.1 288.1 441.6 287.8 442C287.4 442.5 286.7 442.7 286.2 442.4C285.5 442.3 285 441.8 284.8 441.2C284.7 440.6 284.5 439.9 284.4 439.3C284 435.1 283.8 430.4 283.6 425.3C283.5 420.2 283.4 415.5 283.5 411.3C282.4 410.7 281.4 409.8 280.6 408.8C279.8 407.8 278.7 407.1 277.4 406.7C276.7 406.5 276.6 406.1 277 405.6C277.2 405.1 277.4 404.7 277.6 404.2C277.8 403.8 278.3 403.6 278.7 403.7C279.7 403.9 280.4 403.7 280.8 403.1C281.2 402.5 281.4 401.9 281.7 401.3C282.6 399.4 283 397.3 282.7 395.2C282.5 393.5 282.4 391.8 282.5 390.1C282.5 388.4 282.6 386.6 282.7 384.8C282.8 382.9 282.8 381 282.8 379.1V373.4C282.8 372.6 282.8 371.8 282.9 371C282.9 370.2 283.2 369.3 283.5 368.6C283.7 367.5 283.8 366.3 283.8 365.2C283.8 364.1 283.8 362.9 283.7 361.6C283.7 361.3 283.5 361 283.3 360.9C283 360.7 282.7 360.6 282.4 360.4C282.1 360.3 281.9 360.1 281.8 359.9C281.7 359.7 281.7 359.4 281.9 359C282.4 358.1 282.9 357.9 283.5 358.3C284 358.7 284.6 358.8 285.3 358.9C285.8 359 286.2 359.1 286.5 359.1L287.7 359.3C287.5 358.9 287.5 358.4 287.6 358C287.7 357.6 288.1 357.4 288.7 357.4C289.7 357.3 290.7 357.1 291.7 356.8C292.7 356.5 293.7 356.5 294.7 356.7C296.7 356.2 298.7 355.7 300.6 355.1C302.5 354.5 304.6 354.3 306.6 354.4C307.5 354.5 308.3 354.6 309.2 354.6C310 354.6 310.9 354.9 311.6 355.2C315.1 355.7 318.6 356.3 322 357C325.4 357.7 328.7 358.9 331.7 360.6C336.3 363.1 340.1 366.8 342.8 371.3C343.3 371.1 343.8 371.1 344.2 371.4C344.7 371.6 345.1 371.8 345.6 371.9C346 371.9 346.4 371.9 346.7 372C347.1 372.1 347.5 372.2 348 372.3C347.5 371.1 347.9 370.4 349 370.3C350 370.2 351 370 352 369.8C353 369.6 354 369.5 355 369.7C356.9 369.2 358.8 368.7 360.8 368.1C362.8 367.5 364.8 367.3 366.9 367.4C367.8 367.4 368.6 367.4 369.5 367.5C370.3 367.5 371.2 367.8 371.9 368.1C375.3 368.7 378.8 369.3 382.2 370C390.5 371.8 397.7 376.6 402.6 383.5C405.2 387.7 406.5 392.6 406.2 397.5C406.1 399.6 405.9 401.7 405.5 403.8C405.1 405.8 404.4 407.8 403.5 409.6C403.2 411.5 401.9 413 400.1 413.6C398.2 414.4 396.3 415.1 394.3 415.7C392.3 416.4 390.3 417 388.2 417.4C387.4 417.6 386.6 417.7 385.7 417.9C384.7 418.1 384 418.8 383.6 419.7C383.4 419.8 383.2 419.9 383 419.8C383.2 419.8 383.4 419.8 383.6 419.7C385.5 422.1 387.5 424.4 389.6 426.6C391.7 428.7 393.7 431 395.7 433.2C397 434.3 398.3 435.5 399.5 436.7C400.7 437.9 401.8 439.2 402.8 440.6C403.2 441.3 403.8 442 404.5 442.5C405.2 443 405.8 443.5 406.4 444.1L407.8 445.5C408.3 446 408.7 446.6 409 447.2C410.2 448 411.3 449 412.3 450C413.3 451 414.3 452.1 415.2 453.2C416.3 454.7 417.5 456 418.8 457.3C420.1 458.6 421.3 459.9 422.4 461.4C423.3 462.7 424.2 464 425 465.3C425.8 466.7 426.4 468.2 426.5 469.8C426.9 470 427.2 470.2 427.5 470.4C427.8 470.6 427.7 471 427.2 471.6C426.9 472 426.9 472.3 427.1 472.5L427.8 473.2ZM311.2 391.2C313.1 391.4 314.9 391.2 316.7 390.5C318.5 389.9 320.2 389.3 322.1 388.9C324.2 388.5 326 387.4 327.4 385.8C328.7 384.2 329.6 382.3 330.1 380.2C330.2 379.7 330.3 379.3 330.4 378.9C330.5 378.5 330.6 378.1 330.8 377.7C330 376.2 328.9 374.9 327.4 373.9C326 373 324.5 372.3 322.9 371.8C320.1 370.9 317.1 370.3 314.1 370.2C311.1 370.1 308.1 370.4 305.2 371.3C304.5 371.5 303.9 371.7 303.2 371.9C302.5 372.1 301.8 372.2 301.1 372V372.2C300.9 375 300.8 377.8 300.7 380.6C300.6 383.4 300.5 386.3 300.3 389.2C300.2 389.7 300.1 390.2 300.2 390.8C300.2 391.4 300.5 392 301.1 392.4C302.4 391.7 303.8 391.2 305.3 391C306.8 390.8 308.3 391.2 309.5 392.1C309.7 391.9 310 391.7 310.2 391.5C310.4 391.2 310.8 391.1 311.2 391.2ZM342.6 427.6C342.9 428.1 343.3 428.6 343.7 429V424.2C342.6 423.5 341.7 422.7 340.9 421.7C340.1 420.7 339 420 337.7 419.6C337.3 419.5 337 419.1 337.1 418.7C337.1 418.6 337.1 418.6 337.2 418.5C337.4 418 337.6 417.6 337.8 417.1C338 416.7 338.5 416.5 339 416.6C340 416.8 340.6 416.6 340.9 416C341.2 415.4 341.5 414.8 341.8 414.2C342.8 412.4 343.2 410.3 342.9 408.2C342.6 404.7 342.6 401.2 342.9 397.8V397C342.4 398.6 341.1 399.9 339.5 400.3C337.6 401.1 335.7 401.8 333.7 402.5C331.8 403.2 329.8 403.8 327.8 404.3C326.9 404.5 326.1 404.7 325.2 404.8C324.3 405 323.5 405.7 323.3 406.6C325.2 409 327.2 411.3 329.2 413.4C331.2 415.6 333.3 417.8 335.4 420C336.7 421.1 338 422.3 339.2 423.5C340.5 424.8 341.6 426.2 342.6 427.6ZM371.7 404.2C373.5 404.4 375.4 404.2 377.1 403.6C378.8 403 380.6 402.5 382.5 402C384.5 401.5 386.4 400.4 387.8 398.8C389.1 397.2 390 395.3 390.4 393.3C390.6 392.9 390.7 392.4 390.7 391.9C390.7 391.5 390.9 391.2 391.1 390.8C390.3 389.3 389.2 388 387.8 387C386.4 386.1 384.9 385.3 383.4 384.8C380.5 383.9 377.6 383.3 374.6 383.2C371.6 383.1 368.5 383.4 365.6 384.3C364.9 384.5 364.3 384.7 363.7 385C363 385.2 362.3 385.3 361.6 385.1V385.2C361.4 388 361.2 390.9 361.1 393.7C361 396.5 360.8 399.3 360.6 402.2V403.9C360.6 404.5 360.9 405.1 361.3 405.5C362.6 404.8 364.1 404.3 365.6 404C367.1 403.8 368.6 404.2 369.7 405.2C370.2 404.6 370.9 404.2 371.7 404.2Z" fill="#E8E8E8"/>
<path d="M490.4 446C490.9 447.3 490.4 448 489 448.1C488.4 448.3 487.7 448.2 487.2 447.8C486.9 448.4 486.6 448.9 486.2 449.4C485.9 449.9 485.3 450.1 484.8 450.1C484.1 450 483.4 449.7 482.8 449.2C482.2 448.7 481.8 448 481.7 447.2C481.5 446.7 481.3 446.3 481 445.8C480.7 445.4 480.5 444.9 480.3 444.5C479.3 442.7 478.3 440.9 477.3 439.1C476.4 437.3 475.3 435.6 474 434C473.4 433.2 472.9 432.5 472.4 431.7C471.9 430.9 471.4 430 470.9 429.2C469.8 427 468.7 424.8 467.5 422.6C466.3 420.4 465.2 418.2 464.2 416C463.4 414.3 462.7 413.3 462 413C460.8 412.7 459.5 412.7 458.3 413H456.3C452.5 412.8 448.7 412.9 445 413.2C441.2 413.5 437.5 413.9 433.7 414.3C431.2 414.5 428.8 414.6 426.5 414.8C424.2 415 421.8 415.1 419.4 415.3C418.8 416.1 417.8 417.8 416.3 420.4C414.8 423 413.2 425.6 411.5 428.3C409.7 431.1 408 433.7 406.4 436C404.7 438.3 403.4 439.7 402.5 440.2C401.5 440.8 400.5 441.4 399.5 442.1C398.5 442.8 397.6 443.7 396.9 444.7C396.5 445 396 445.2 395.5 445C395.1 444.8 394.7 444.7 394.4 444.4C394 444.2 393.6 443.9 393.3 443.6C392.9 443.3 392.5 443.2 392 443.3C391.8 443.4 391.7 443.2 391.8 442.8C391.8 442.4 391.9 442.1 392 441.7C392.3 440.8 392.6 440 393 439.2C393.4 438.4 393.8 437.6 394.3 436.9C394.7 436.3 395 435.7 395.3 435.1C395.6 434.5 395.9 433.9 396.2 433.3C396.3 433 396.8 431.9 397.7 429.9C398.6 427.9 399.5 425.8 400.5 423.5C401.5 421.2 402.3 419.1 403 417.1C403.7 415.1 404 414.1 403.8 413.9H402C401.6 414.1 401.2 414.1 400.9 414C400.4 414 399.9 413.9 399.4 413.6C398.9 413.4 398.4 413.1 397.9 413C397.3 412.5 397.2 412.1 397.5 411.7C397.8 411.3 398 410.8 398.1 410.3C397.2 410.1 396.4 409.7 395.7 409.2C395.5 409 395.5 408.3 395.7 407.1C394.7 407.3 393.6 407.4 392.5 407.5C391.4 407.6 390.2 407.7 388.9 407.9C389.3 407.3 389.9 406.9 390.5 406.7L392 406.4C394.2 406.2 396.4 405.8 398.5 405.2C400.7 404.6 403 404.7 405.1 405.6C406.8 405.1 408.4 404.5 409.9 403.7C411.5 402.9 412.8 401.7 413.8 400.2C415 398.3 416.3 396.5 417.4 394.8C418.5 393.1 419.8 391.3 421 389.4C421.5 388.9 421.9 388.3 422.3 387.7C422.7 387.1 423.3 386.6 424 386.3C425.8 384 427.4 381.6 428.8 379.1C430.2 376.6 431.8 374.1 433.4 371.7C434 370.7 434.6 369.8 435.1 369C435.6 368.2 436.3 367.2 437 366.3C438.4 364.5 439.5 362.5 440.1 360.3C439.7 359.7 439.5 359.1 439.4 358.4C439.3 357.7 439.2 357.1 439 356.4C438.9 355.8 439 355.3 439.4 354.8C439.7 354.4 440.3 354.2 440.7 354.5C442.4 355.4 444.3 355.9 446.3 355.9C448.2 355.8 450.1 356.2 451.9 356.8C453.2 357.3 454.5 357.9 455.6 358.6C456.8 359.4 457.7 360.5 458.3 361.9C458.8 363.1 459.3 364.3 459.9 365.4C460.5 366.5 460.9 367.8 461 369L461.8 371.3C462.1 372.1 462.2 373 462.2 373.9C462.3 374.2 462.3 374.6 462.4 375C462.4 375.4 462.6 375.8 463 376.1C465.4 380.1 467 384.4 467.7 388.9C468 389.7 468.2 390.4 468.5 391.1C468.8 391.8 469 392.4 469.1 393.1C469.8 393.8 470.2 394.7 470.5 395.7C470.8 396.6 471 397.6 471.1 398.5V398.6C471.8 399.6 472.4 400.7 472.8 401.8C473.2 402.9 473.6 404 474.1 405C474.9 406.9 475.6 408.8 476.3 410.6C477 412.5 477.9 414.3 478.8 416C480.1 418.8 481.3 421.6 482.4 424.5C483.5 427.4 484.7 430.2 486 433C486.7 434.6 487.3 436.2 487.6 437.9C487.9 439.6 488.1 441.3 488.3 443H489C489.2 444.2 489.6 445.2 490.4 446ZM445.7 398.3C447.3 397.9 448.9 397.7 450.5 397.5C452.2 397.3 453.8 396.5 454.9 395.2C453.9 391.9 452.7 388.6 451.4 385.4C450.1 382.2 448.8 379 447.5 375.7C447.1 375.9 446.7 376.2 446.3 376.6C443.7 379.9 441.2 383.3 438.7 386.8C436.2 390.3 433.8 393.8 431.4 397.3C430.9 398.7 431 399.6 431.5 399.9C432.3 400.2 433.1 400.3 433.9 400.1C435.8 399.9 437.7 399.7 439.7 399.4C441.7 399.1 443.8 398.7 445.7 398.3Z" fill="#E8E8E8"/>
<path d="M392 260.4C390.9 258.1 388.2 257.1 384 257.2C383.2 257.1 382.4 256.8 381.7 256.4C380.9 256 380 255.5 379.3 254.9C375.2 253.5 371.3 252.3 367.6 251.4C363.7 250.5 359.6 250.1 355.6 250.2C352.3 250 349 249.4 345.9 248.5C341.4 247.3 336.7 246.5 332 246.2C326.8 245.8 321.6 245.5 316.4 245.2C311.1 244.9 306 243.5 301.4 241C299.9 240.5 298.3 240.3 296.8 240.7C291.3 240.7 285.7 240.6 280.1 240.2C274.4 239.8 268.7 239.7 262.9 239.9C257.5 240.1 252.1 240.2 246.7 240C246.7 238.7 246.7 237.4 246.7 236C246.8 231.7 245.7 195.6 245.8 191.1C245.7 188.6 245.8 186 245.9 183.5C246.1 180.8 245.8 178.1 245.2 175.5L245.3 175.2C245.9 173.2 246.4 171.1 246.7 169C246.9 166.8 246.7 164.6 246 162.6C246.2 161.1 246.3 159.6 246.4 158C246.5 156.4 246.6 154.8 246.6 153C249 143.1 248.2 74.1 246.8 63.9C246.4 63.1 246.3 62.1 246.6 61.2C246.9 60.5 247.1 59.7 247.2 58.9C248 57.1 248.4 55.2 248.5 53.3C248.6 51.5 248.6 49.7 248.7 47.9C249.4 45.2 249.7 42.3 249.5 39.5C249.3 36.7 249.2 33.9 249.3 31.1C249.4 27.9 248.5 24.8 246.8 22.2C245 19.6 243 17.3 240.7 15.2C237.6 12.3 234.1 10.1 230.2 8.49999C226.2 6.89999 222.7 4.29999 220.1 0.999991C219.5 -9.47714e-06 218.2 -0.300009 217.2 0.399991C217.2 0.399991 217.2 0.399991 217.1 0.399991C216 0.999991 215.3 2.09999 215 3.29999C214.8 4.79999 214.5 6.29999 214.1 7.69999C213.7 9.09999 213.7 10.6 214 12.1L214.1 15.2L215.2 49.6C215.5 49.6 215.7 49.5 216 49.5C215.9 55.4 215.8 61.1 215.7 66.7V67.3L215.8 76.8L212.8 79.5C210.9 81.3 208.9 83.2 206.9 85.2C201.4 90.2 196.1 95.4 191 100.7C185.8 106.1 187.4 105.1 181.7 109.8C179.9 110.4 178.3 111.4 176.9 112.6C175.6 113.8 174.2 115 172.7 116.2C168.5 120.2 164.4 124 160.4 127.6C156.4 131.2 143.6 138.6 139.9 139.4C135.3 137.8 125.8 138.7 120.8 139.6C116 140.5 111.1 140.9 106.2 140.9C105.1 141 104 141.1 102.8 141.2C101.2 141.5 99.6 142.3 98.4 143.4C101.3 143.3 104 143.2 106.3 143.2C108.6 143.2 111 143.1 113.3 142.9C111.9 145.4 111.3 147 111.5 147.6C111.7 148.2 113.1 149.1 115.6 150.5C114.9 151.6 114.1 152.6 113.2 153.4C112.3 154.2 112.1 155.6 112.9 156.5C113.7 157 114.6 157.6 115.5 158.3C116.3 158.9 117.3 159.3 118.3 159.4C118.6 159.7 119.4 159.6 120.8 159.3L123.5 159.6C123.7 160.1 116.6 165.3 113.5 169.5C110.4 173.7 96.4 188.9 92.4 193.8C88.4 198.7 84.6 203.3 81 207.6C77.4 211.9 75.3 214.4 74.9 215C73.8 216.2 72.7 217.5 71.6 218.8C70.5 220.1 69.3 221.4 68 222.6C66.3 224.2 64.8 225.9 63.3 227.6C61.8 229.3 60.4 231.1 59 233C58.5 233.7 58 234.5 57.6 235.4C57.1 236.4 57.1 236.7 57.6 236.6C58.5 236.4 59.5 236.8 60 237.5C60.5 238.2 61.1 238.9 61.7 239.5C62.3 240.1 62.9 240.6 63.6 241C64.3 241.4 65.3 241.2 66.9 240.5C69.2 238.4 71.8 236.7 74.5 235.3C77.1 234 79.7 232.8 82.3 231.8C84.7 230.9 88.6 228.1 94.1 223.2C99.6 218.3 105.4 213 111.4 207.2C117.5 201.4 123.1 195.8 128.4 190.4C133.7 185.1 149.2 169 151.1 167.2C156.2 167.3 160.8 169.6 165.7 169.7C170.6 169.8 175.7 171.8 180.8 173.2C188.5 175.3 208.1 180.8 216.7 182.5L217.2 236.2V238.7C217.2 238.7 217.8 247.7 218.2 252.2C218.7 257.7 219.1 263.1 219.4 268.4C219.4 268.5 219.4 268.5 219.4 268.6C219.6 270.7 219.9 272.8 220.3 274.8C220.7 276.8 221.1 279 221.6 281C222.5 284.7 223.2 288.4 223.6 292.2C223.7 292.9 223.8 293.6 223.8 294.2C224.2 298.7 224.7 303.2 225.2 307.8C225.2 308.9 225.3 310.1 225.5 311.2C225.7 312.3 225.8 313.4 225.8 314.6C225.4 316.3 225.7 318 226.4 319.6C227.1 321 228.3 322.2 229.7 323.1C230.8 323.8 232.1 323.8 233.2 323C234.4 322.3 235.6 321.4 236.6 320.5C237 321.6 238.2 322.3 240.1 322.7C243.1 323.7 244.7 322.7 244.8 319.6C244 317.4 243.9 314.9 244.6 312.7L243.1 312.1C244.2 308.5 245.1 304.8 246 301.2C246.7 298.3 247 295.3 247 292.4C247 291.6 247 290.7 247 289.9C247 289.5 247 289.2 247 288.8C247 287.9 246.9 286.9 246.9 286H247V269.7C257.6 270 268.3 270.4 279 270.8C290.7 272.1 302.4 272.7 314.1 272.8C325.8 272.9 337.5 272.9 349.1 272.8C351.5 272.8 353.9 272.7 356.2 272.5C358.6 272.3 360.9 271.8 363.2 270.9C365.6 270.4 367.9 270 370.2 269.6C372.5 269.2 374.8 268.9 377.2 268.6C377.8 268.4 378.4 268.4 379 268.4C384.3 268 393.1 262.7 392 260.4ZM202.2 150.5C197.9 149.5 186.2 146 182 146.1C179.6 146.3 178 146 177.1 145.2C176.2 144.4 184.2 139.7 186.5 136.6C194.5 129.2 196.9 127.2 205.1 120C208.7 116.8 212.4 113.6 216 110.4L216.4 153.9C210.9 152.3 204.1 150.3 202.2 150.5Z" fill="#E8E8E8"/>
<path d="M462.3 154.3L462.5 162.7L459.3 170L456.4 177.3L453.4 184.7L448.4 190.9L444.1 197.5L438.9 203.4L434 209.5L432.6 211.4C432.2 211.4 431.8 211.3 431.4 211.2C431.1 211.2 430.8 211.1 430.6 210.9C430.2 210.5 430.7 209.8 431 209.2C431.3 208.6 431.2 207.7 430.4 207.9H430.5C431.2 207.5 431.4 206.6 431 205.9C431 205.8 430.9 205.8 430.9 205.7C430.5 205 430 204.1 430.8 203.4C431 203.2 431.2 203.1 431.4 203C431.4 203 431.4 203 431.5 203C432 202.5 432 201.7 431.5 201.2C431.1 200.7 430.5 200.3 430.3 199.7C430.2 199.2 430.4 198.8 430.7 198.5C430.7 198.5 430.7 198.5 430.8 198.5C430.8 198.5 430.9 198.4 431 198.4C431.1 198.3 431.2 198.3 431.4 198.3C431.4 198.3 431.5 198.3 431.6 198.3C432 199.4 432.2 199.9 432.7 200.9C433.2 200.7 433.6 200.4 434 200C434.1 199.9 434.2 199.8 434.3 199.7C434.6 199.4 434.9 199.1 435.1 198.7C433.8 197.1 434.3 194.5 436.1 192.7C436.3 192.5 436.4 192.4 436.6 192.3C436.8 192.2 437 192 437.2 191.9C437.2 191.9 437.2 191.9 437.3 191.9C438.7 191.2 440.2 190.6 441.7 190.2C442.7 189.8 443.8 189.3 444.5 188.6C444.6 188.5 444.7 188.4 444.8 188.2C445 188 445.1 187.7 445.2 187.5C446.1 185.3 447.1 183.3 446.9 181C446.5 176.8 445.8 172.6 444.7 168.5C444.4 167.4 444 166.2 442.8 165.7C442.8 165.7 442.8 165.7 442.8 165.8C443.3 169.5 443.5 173.1 443.5 176.8C442.7 176.6 441.8 176.3 441.5 175.7C441.5 175.6 441.4 175.5 441.4 175.4V175.3C441.4 174.9 441.5 174.5 441.6 174.2C441.6 174.2 441.6 174.2 441.6 174.1C441.6 174 441.6 174 441.6 173.9C441.6 173.9 441.6 173.9 441.6 173.8C441.6 173.2 441.6 172.6 441.4 172C440.1 166.7 439.3 163.9 437.8 158.4C437.6 157.2 437 156.1 436.1 155.3C435.4 155 434.6 154.6 434 154.1C433.5 153.7 433.3 153.1 432.9 152.6C431.6 151.4 429 152.4 427.8 151C427.5 150.6 427.3 150.1 427 149.7C426 148.3 423.6 148.4 422.3 147.2C421.6 146.3 421.1 145.2 421 144.1C420.3 141.3 418.8 138.4 416 137.4C415.1 137.2 414.2 136.9 413.4 136.6C412.7 136.2 412 135.4 412.2 134.6C412.2 134.5 412.2 134.5 412.3 134.4C412.3 134.3 412.4 134.2 412.4 134.1C412.5 133.9 412.5 133.8 412.5 133.6C412.5 133.5 412.5 133.4 412.6 133.2C412.7 132.3 412.7 131.4 412.9 130.5C412.9 130.4 412.9 130.3 413 130.2C413 130 413.1 129.9 413.2 129.7V129.6C414.2 127 418.4 126.9 419.4 124.4C419.5 123.8 419.7 123.3 419.9 122.7C419.9 122.7 419.9 122.7 419.9 122.6C420.3 121.9 420.9 121.5 421.3 120.9C421.3 120.8 421.4 120.7 421.4 120.6C421.4 120.5 421.5 120.5 421.5 120.4C421.5 120.3 421.5 120.2 421.5 120.1C421.7 119 421.1 117.8 420.4 116.8C419.5 115.6 418.5 114.4 418.2 113C417.9 111.6 418.5 110 418.7 108.5C419 105.2 416.7 102 414.3 99.6C413.5 98.9 412.8 98.1 412.4 97.1C412.1 96.4 412.1 95.7 412.2 94.9C412.2 94.5 412.3 94.2 412.3 93.9V93.8C412.3 93.6 412.3 93.3 412.3 93.1C412.4 89.8 410.4 86.4 411 83.2C411.1 82.8 411.2 82.4 411.3 82C411.4 81.8 411.5 81.6 411.6 81.4C412.3 80 413.3 78.7 414.1 77.3C414.6 76.5 414.9 75.6 415.2 74.7C415.3 74.4 415.4 74.1 415.5 73.8C415.6 73.6 415.6 73.3 415.7 73.1C415.7 72.9 415.8 72.6 415.8 72.4C415.8 72.1 415.9 71.9 415.9 71.6C416.1 70.3 416.1 69 415.9 67.7C415.8 67.2 415.7 66.6 415.6 66.1C415.5 65.6 415.4 65.1 415.2 64.6C414.8 63.5 414.5 62.3 414.2 61.2C413.9 59.1 414.5 57.1 414.2 55C413.9 52.3 412.1 49.5 412.8 46.9C412.1 44.5 410.6 42.4 408.4 41.1L405.5 39L413.2 42.1L420.1 46.6L426 52.4L432.4 57.4L438.8 62.6L442.8 69.9L448.7 75.7L452.7 82.9L455.3 90.7L458.5 98.2L461.6 105.7L463.1 113.7L464.2 121.7L464.5 129.8L464.8 137.9L465.5 146.1L462.3 154.3Z" fill="#E8E8E8"/>
<path d="M427.4 154.5C426.9 154.3 426.3 154.2 425.7 154.3C425.6 154.3 425.5 154.3 425.4 154.4C425.1 154.5 424.8 154.6 424.6 154.8C423.8 155.4 423.2 156 422.6 156.8C421.8 157.9 420.7 158.7 419.4 159.1C419.2 159.2 419.1 159.2 418.9 159.3C418.8 159.3 418.6 159.4 418.5 159.4H418.4C416.7 159.5 415 157.8 415.7 156.3C416.2 155.4 417.3 155 418.3 154.5C419.3 154 420.3 153.2 420.1 152.2C418.4 152 416.8 151.1 415.7 149.8C414.8 148.3 415 146.3 416.3 145.1L416.4 145L416.5 144.9C417.6 143.6 417.4 141.6 416.1 140.6C415.4 140.2 414.7 139.8 414 139.5C412.9 138.9 412.1 137.8 411.8 136.7C411.2 136.5 410.6 136.5 410 136.6C409.9 136.6 409.7 136.6 409.6 136.7C408.6 137 407.7 137.6 407.1 138.5C406.9 138.9 406.6 139.3 406.3 139.7C406.1 139.9 405.8 140 405.6 140.1C405.5 140.1 405.5 140.1 405.4 140.1C404.5 140.2 403.4 139.8 402.5 139.3C399.7 137.8 398.4 137.1 395.6 135.6C393.9 134.7 392.1 133.7 391.3 132C390.8 130.9 390.6 129.6 389.8 128.8C389 127.9 387.8 127.7 386.7 127.2C383.8 125.8 382.1 122.8 382.4 119.7C382.5 118.7 382.8 117.7 382.1 116.8C381.4 115.9 380 116.1 379 115.7C377.1 115 376.5 112.5 374.8 111.5C373.8 111 372.6 111 371.7 110.2C370.8 109.4 370.9 107.9 370.1 106.9C369.3 105.8 367.7 105.6 366.9 104.5C366.1 103.4 366.5 101.7 367 100.4C367.4 99.1 367.9 98 368.6 96.9C370.2 94.7 373.1 93.4 374.4 91.1C374.5 91 374.5 90.9 374.5 90.8C374.7 90.4 374.9 89.9 375 89.4C375 88.3 374.9 87.1 374.7 86C374.6 85.2 374.7 84.5 375.1 83.8C375.1 83.7 375.2 83.6 375.3 83.6C375.3 83.5 375.4 83.5 375.5 83.4C375.6 83.3 375.7 83.2 375.8 83.1C376.2 82.9 376.6 82.7 377.1 82.6C380.1 81.8 381.6 81.4 384.6 80.6C385.1 80.5 385.5 80.3 385.8 79.9C385.8 79.9 385.8 79.9 385.9 79.8C386.1 79.5 386.1 79.1 386.1 78.7C386.1 77.3 386.5 75.9 387.2 74.6C387.3 74.5 387.3 74.4 387.4 74.3C387.5 74.2 387.6 74 387.7 73.9C387.8 73.8 387.9 73.7 388 73.6C388.7 72.8 389.7 72.2 390.6 72.3C390.6 72.3 390.7 72.3 390.8 72.3C389.7 71.2 389.1 69.7 389 68.2C391.9 68.7 394.8 69.5 397.5 70.5C397.5 70.5 397.5 70.5 397.6 70.5C397.7 69.4 397.7 68.3 397.6 67.2C397.5 66.1 397.8 65 398.6 64.3C398.8 64.2 399 64.1 399.2 64C399.4 64 399.6 63.9 399.8 63.9C400.6 63.9 401.4 64.2 402.2 64.6C402.2 64.6 402.2 64.6 402.3 64.6C402.1 63.8 402.4 62.8 403.1 62.3C403.4 62.1 403.8 61.9 404.1 61.8C404.5 61.7 404.9 61.6 405.3 61.6C405.3 61.6 405.3 61.6 405.4 61.6C404.7 60.8 404.5 59.7 404.9 58.7C405.3 57.9 405.9 57.3 406.5 56.7C407.2 56 407.4 55.1 407 54.2C406.7 53.7 406.2 53.3 405.9 52.8C405.5 51.8 406.3 50.9 406.8 50C407.8 48.1 407.2 45.4 405.9 43.6C404.6 41.9 402.9 40.6 401.1 39.6C401.2 39.3 401.3 39.1 401.5 38.8L394.8 35.8L387.5 32.2L379.1 30.5L370.4 30.6L361.9 30.1L353.4 30.2L344.8 30.3L336.3 31.4L327.8 33.1L320 36.9L312 40.1L305.1 45.3L297.5 49.2L290.2 53.9L285.1 60.9L279 66.8L272.9 72.9L269.1 80.7L264.8 88.1L261.9 96.2L257.6 103.8L256.6 107.6L257.1 108.4H257.3C260.1 107.8 263.8 101.9 266.4 100.8C269 99.7 272.4 99.3 274.7 101C274.6 101.2 274.5 101.5 274.4 101.7C274.4 101.8 274.4 101.9 274.4 102C274 104.5 276.4 107.2 276.4 110C276.4 110.4 276.3 110.7 276.3 111.1C276.3 111.2 276.3 111.3 276.2 111.4C276.2 111.5 276.2 111.6 276.1 111.8C276.1 112 276.1 112.2 276 112.3C276 112.6 276 112.8 276 113.1C276.2 114.6 277.2 115.9 278 117.3C279.5 119.8 280.1 122.6 279.9 125.4C279.9 125.7 279.9 126 279.8 126.3C279.8 126.6 279.7 126.8 279.7 127.1C279.7 127.3 279.6 127.4 279.6 127.6C279.6 127.8 279.5 127.9 279.5 128.1C279.3 128.7 279.1 129.3 279 129.9C278.9 130.5 278.8 131.1 278.7 131.7V131.8C278.7 133.2 279.5 134.4 280.8 134.9C283.7 135.7 287.3 136.6 288.3 139.5C288.3 139.6 288.4 139.8 288.4 139.9C288.4 140 288.4 140.2 288.5 140.3C288.5 140.4 288.5 140.5 288.5 140.6C288.5 140.6 288.5 140.7 288.5 140.8C288.5 140.9 288.5 141 288.5 141C288.4 141.5 288.2 142 287.7 142.2C287 142.4 286.2 142.3 285.6 141.9L279.3 139.2C277.8 138.6 276.2 137.9 274.8 138.3C274.5 138.4 274.3 138.5 274.1 138.6C273.5 139 273.2 139.5 273.1 140.2C273 140.8 273.1 141.4 273.4 141.9C274.1 142.9 275.7 143.3 275.8 144.5C275.8 144.6 275.8 144.6 275.8 144.7C275.7 145.3 275.2 145.9 275 146.4V146.5C275 146.7 275 146.8 275.1 147C275.5 147.6 276.2 147.9 276.8 147.6C277.3 147.3 277.9 147 278.5 146.8C279.6 146.6 280.8 147.5 281.8 148.2C282.8 148.9 284.2 149.5 285 148.6C285.9 147.6 285 145.8 285.9 144.8C287 143.5 289.5 145.3 290.9 144.3C291.3 144 291.5 143.6 291.6 143.2C291.6 143.2 291.6 143.1 291.6 143C291.7 141.9 291.3 140.6 291.5 139.4C291.5 139.3 291.5 139.2 291.5 139.1C291.5 138.9 291.6 138.7 291.7 138.5C293 138.3 294.3 138.8 295.2 139.8C295.8 140.5 296.1 141.4 296.1 142.3V142.4V142.5C296.1 142.7 296.1 142.8 296 142.9C296 143 295.9 143.2 295.9 143.3C295.7 143.9 295.3 144.4 295.1 145C295.1 145.1 295.1 145.2 295.1 145.2C295.1 145.4 295 145.6 295.1 145.8C295.3 146.5 295.7 147.2 296.3 147.7L301.8 153.2C302.1 152.9 302.2 152.6 302.2 152.2C302.3 151.4 301.9 150.4 301.4 149.6C300.7 148.5 299.6 147.5 299.3 146.2C299.2 145.8 299.2 145.3 299.2 144.9C299.2 144.9 299.2 144.8 299.2 144.7C299.4 143.5 300.3 142.5 301.5 142.2C301.7 142.1 302 142.2 302.2 142.3C302.4 142.5 302.5 142.7 302.5 143C303 146.2 303.9 149.5 306.3 151.9C308.6 154.2 312.5 155 314.8 153C315.3 152.5 315.8 151.9 316.3 151.4C319.1 148.6 323.6 148.1 327.5 149.3C327.9 149.4 328.2 149.6 328.5 149.9C328.7 150.1 328.8 150.3 328.8 150.6V150.7C328.8 151.2 328.7 151.7 328.5 152.2C328 153.5 327.8 154.1 327.3 155.3C327.1 156 326.7 156.5 326.1 156.9C325.3 157.3 324.3 156.6 323.4 156.4C322 156.1 320.5 156.7 319.8 157.9C319.6 158.2 319.5 158.5 319.4 158.9C319.4 158.9 319.4 158.9 319.4 159C319.4 159.1 319.4 159.2 319.4 159.3V159.4C319.2 160.3 319.4 161.3 320 162.2C320.2 162.6 320.5 163.1 320.5 163.5C320.5 163.5 320.5 163.5 320.5 163.6C320.5 163.7 320.5 163.8 320.4 163.9C320.1 164.2 319.8 164.3 319.4 164.2C317.7 164.2 315.9 163.8 314.2 163.9C312.4 163.9 310.8 164.8 309.9 166.3C309.7 166.8 309.5 167.4 309 167.5C308.7 167.5 308.5 167.5 308.3 167.4C308.3 167.4 308.3 167.4 308.2 167.4C306.5 167.2 304.9 168.3 304.6 169.9V170C304.6 170 304.6 170 304.6 170.1V170.2C303.8 170.5 302.8 169.8 302.2 169C301.7 168.1 301.1 167.3 300.3 166.7C298.8 165.7 296.9 166.7 295.2 166.2C294.5 165.8 293.8 165.6 293.1 165.5C292.4 165.5 291.8 166.1 291.2 166.5C291.2 166.5 291.2 166.5 291.1 166.5C290.5 166.9 289.6 166.8 289.2 166.1L289 169.3V169.4C287.6 168.4 285.8 168.1 284.1 168.6H284L288.9 172.3C289.1 172.4 289.2 172.6 289.3 172.7C289.4 172.8 289.4 172.9 289.4 173.1V173.2C289.4 173.6 289 174 288.7 174.3C288.3 174.7 288 175.3 287.8 176C287.8 176.1 287.8 176.1 287.8 176.2C287.7 176.9 287.8 177.7 288.4 178.2C289.2 178.8 290.2 178.9 291.1 178.5L295.3 177.5V177.4C295.4 176.7 294.7 176.1 294.3 175.4C293.9 174.9 293.8 174.2 293.9 173.6C293.9 173.5 293.9 173.5 293.9 173.4C294 172.9 294.3 172.4 294.8 172C295.3 171.7 296 171.6 296.6 171.8C296.6 171.8 296.6 171.7 296.5 171.7C296.3 171.3 296.3 170.8 296.3 170.4C296.3 170.2 296.3 170 296.3 169.9C296.3 169.7 296.4 169.5 296.5 169.2L299.1 169.9C299.4 169.9 299.7 170.1 299.9 170.3C300.1 170.6 300 171.1 300 171.5C300 172.5 300.6 173.4 301.5 173.9C302.3 174.3 303.3 174.5 304.2 174.5C304.6 174.5 305 174.6 305.3 174.9C305.5 175.1 305.6 175.4 305.6 175.7C305.6 175.9 305.6 176.1 305.6 176.3C305.6 176.4 305.6 176.5 305.6 176.5C305.6 176.6 305.6 176.7 305.5 176.8C305.3 177.5 305 178 304.4 178.5C303.6 179.1 302.7 179.6 301.8 179.9C299.6 181 297.9 182.8 296.8 185C295.3 185.2 293.7 185.5 292.2 185.7C289.8 186.1 287.3 185.8 285.1 184.7C283.2 184 282.3 183.6 280.5 182.9C279.1 182.4 277.7 181.7 276.6 180.7C275.3 179.7 274.6 178.1 274.6 176.5C274.6 176.4 274.6 176.4 274.6 176.3V176.2C274.6 176 274.8 175.8 275 175.7C275.2 175.7 275.4 175.7 275.6 175.8C276.9 176.2 277.5 176.1 278.8 176.5C278.8 176.5 278.8 176.4 278.7 176.3C278.1 175.1 277.3 174 276.2 173.3C274.1 172.2 272.3 174 271.1 175.7C271.1 174.6 270.5 173.5 269.4 173.1C268.9 173 268.4 173 267.9 173.1C265.9 173.5 263.8 173.6 261.8 173.4L264.8 180.4L265.5 184L270 190.6L273.7 197.8L279.2 203.7L284 210.2L290.1 215.5L295.9 221.1L302.3 226L309.3 230.1L317.2 232.3L324.7 235L332.1 238.5L340.5 239.1L348.5 241.6L356.9 241L365.3 242.2L373.6 240.8L381.9 239.9L389.8 237.1L397.8 234.8L405.6 231.7L412.9 227.6L420 223.2L420.1 223.1C420.1 223.1 420.1 223.1 420 223.1C415 221.6 409.7 219.2 404.5 219.6C403.2 219.7 401.8 220 400.5 220C395.4 219.9 392.5 214.5 387.2 215.2C386.4 215.9 387.3 216.9 388.2 217.1C389.1 217.3 390.2 217.7 390 218.7C389.8 219.4 388.7 220.2 389.1 220.7C389.3 220.9 389.5 221 389.7 221C390.7 221.2 391.2 221.3 392.2 221.5C391.1 222.3 389.9 222.8 388.8 223.1C388.6 223.1 388.5 223.2 388.3 223.2C388.1 223.2 387.9 223.3 387.7 223.3C386.4 223.4 385.1 223.2 384.1 222.5C382.4 221.5 381.5 219.4 379.3 219C379 219 378.8 218.9 378.5 218.8C377.7 218.3 378.6 216.9 379.5 216.3C380.5 215.6 381.6 215.1 382.8 214.8C383.2 214.7 383.5 214.6 383.9 214.6H384L379.5 213C378.8 212.7 378.1 212.5 377.4 212.6H377.3C377.2 212.6 377.2 212.6 377.1 212.6C376.4 212.7 375.8 213.2 375.5 213.8C375.2 214.4 375.4 215.3 374.8 215.7C374.7 215.7 374.6 215.8 374.5 215.8H374.4C374.2 215.8 374.1 215.8 373.9 215.8L370.3 215.7C370.1 215.7 369.9 215.7 369.7 215.6C369.4 215.3 369.3 215 369.3 214.6C369.3 213.6 369.4 212.5 369.6 211.5C368.9 211 367.6 210.6 366.9 210.1V210.2C367.1 210.9 367.1 211.6 367 212.3C366.8 213.1 366.2 213.7 365.4 213.9C365.1 213.9 364.8 213.9 364.6 214H364.5C364.3 214 364.2 214.1 364.1 214.2C363.8 214.6 364 215.1 363.8 215.6C363.7 215.9 363.4 216.1 363.1 216.2C362.6 216.3 362.1 216.2 361.7 216C356.9 213.9 354.5 212.8 349.7 210.6C349.5 210.5 349.3 210.4 349.2 210.2C348.8 209.7 349.3 208.9 349.5 208.2C349.7 207.2 349.2 206.2 349.1 205.2C349 204.4 349.5 203.3 350.2 203.1C350.4 203.1 350.5 203.1 350.7 203.1C351.4 203.4 351.5 204.4 352.1 204.8C352.3 205 352.6 205 352.9 205H353C353.4 204.9 353.9 204.6 354.2 204.2C354.6 203.5 354.9 202.8 355 202V201.9C355.9 202.8 356.9 203.7 357.9 204.5C358.6 205.1 359.3 205.5 360.1 205.8C360.4 205.8 360.7 206 360.9 206.2C361.4 206.8 360.6 207.9 359.8 208.4C359 208.9 358.1 209.6 358.2 210.5C359.8 210.9 361.5 211 363.1 210.9C363.3 210.9 363.6 210.8 363.8 210.8C363.9 210.8 363.9 210.8 364 210.8C364.5 210.7 365 210.6 365.4 210.4C366.7 210 368 209.4 369.2 208.6C369.4 208.5 369.6 208.4 369.7 208.2C370 207.6 369.2 207.2 369.3 206.5C369.4 206.1 369.7 205.9 370 205.8C370.1 205.8 370.2 205.8 370.3 205.8C370.7 205.8 371.1 206 371.5 206.3L374.5 208.2C374.7 208.4 375 208.5 375.4 208.5C375.4 208.5 375.4 208.5 375.5 208.5C376 208.4 376.4 207.9 376.8 207.6C377 207.5 377.2 207.4 377.5 207.3C377.6 207.3 377.6 207.3 377.7 207.3C378 207.3 378.3 207.3 378.5 207.3C378.9 207.3 379.3 207.4 379.7 207.4C380.2 207.4 380.7 207.4 381.1 207.3C381.3 207.3 381.4 207.2 381.6 207.2C381.8 207.2 382 207.1 382.1 207C382.3 206.9 382.4 206.9 382.6 206.8C383.9 206.3 385 205.5 385.8 204.4C386.2 204 386.4 203.5 386.4 203C386.4 202.6 386.2 202.2 385.9 201.9C385.4 201.2 384.7 200.6 384 200.1C383.3 199.7 382.7 199.2 382.2 198.6C381.3 197.2 381.5 195.3 382.7 194.1C382.3 193.4 381.4 193.4 380.6 193.7C380.6 193.7 380.6 193.7 380.5 193.7C380.3 193.8 380.1 193.9 379.9 194C379 194.7 378.4 195.7 377.5 196.3C375.8 197.4 373.4 197.3 372 198.5C370.6 199.7 370.6 201.7 369.7 203.3C369.6 203.6 369.4 203.8 369.1 203.8H369C368.7 203.8 368.5 203.5 368.2 203.3C367.8 203 367.4 203 366.9 203.1C366.8 203.1 366.7 203.1 366.6 203.1C365.9 203.3 365.2 203.6 364.5 203.6C364.5 203.6 364.5 203.6 364.4 203.6C364.2 203.6 364 203.6 363.8 203.6C362.2 203.3 362 201.3 361.2 199.9C360.4 198.4 358.8 197.4 357.1 197.3C358.3 195.9 358.5 193.9 357.7 192.3C357.2 191.7 356.9 191.1 356.8 190.4C356.8 189.1 358 187.9 359.1 187.1C359.1 187.1 359.1 187.1 359.2 187.1C359.2 187.1 361.3 187.5 361.6 187.5C364.2 188 366.8 188.2 369.5 188.1C369.7 188.1 370 188 370.3 187.9C370.4 187.9 370.5 187.8 370.6 187.8C371.1 187.5 371.6 187.2 371.4 186.7C371.1 186.7 370.9 186.7 370.7 186.6C370 186.3 369.7 185.5 370 184.8C370.2 184.4 370.6 184.1 370.6 183.7C370.7 183.1 370.1 182.8 369.8 182.3C369.5 181.9 369.4 181.1 369.8 180.9C369.8 180.9 369.8 180.9 369.9 180.9C370.3 180.9 370.3 181 370.7 181C371.9 180.9 373.1 180.8 374.3 180.6C374.7 180.5 375.1 180.5 375.5 180.4C376 180.3 376.6 180.2 377.1 180.1C377.8 180 378.4 179.8 379.1 179.6C379.8 179.4 380.4 179.3 381.1 179.1C384.7 178.2 388.2 177 391.4 175.7C391.8 175.6 392.2 175.4 392.5 175.1C392.8 174.8 393 174.4 393.1 174C393.6 172.9 394.7 172.2 395.8 171.8C396 171.7 396.1 171.7 396.3 171.6H396.4C396.6 171.5 396.8 171.5 397 171.4C397.3 171.3 397.6 171.3 397.9 171.2C398.2 171.1 398.5 171.1 398.7 171C399 170.9 399.3 170.9 399.5 170.8C399.7 170.8 400 170.7 400.2 170.6C400.5 170.5 400.9 170.4 401.2 170.3C402.6 169.8 403.9 169.1 404.4 167.8C404.7 166.7 404.8 165.6 404.7 164.5C404.7 163.3 405.4 162.3 406.5 161.9C407.8 161.6 408.9 162.9 409.2 164.1C409.5 165.4 409.3 166.7 409.8 167.9C410.2 168.7 410.8 169.3 411.6 169.7C412.3 170 413.1 170.1 413.8 170C414 170 414.1 169.9 414.2 169.9C414.4 169.8 414.5 169.8 414.7 169.7C415.6 169.2 416.1 168.2 415.8 167.2C415.8 167.2 415.8 167.2 415.8 167.1C418 167.9 420.4 168.6 422.7 168.3C422.8 168.3 423 168.3 423.1 168.2C423.3 168.1 423.5 168.1 423.8 168C424.1 167.9 424.4 167.8 424.6 167.7C426.2 166.8 427.4 165.4 428 163.7C428.5 162 428.8 160.3 428.8 158.6C428.7 156.7 428.6 155.1 427.4 154.5ZM371.7 223.6C371.4 224.2 370.8 224.5 370.2 224.4L370.3 224.3C369.8 223.8 369.2 223.5 368.5 223.6C368.9 223 369.5 222.7 370.1 222.7C370.7 222.7 371.2 222.9 371.8 223.1C371.8 223.3 371.7 223.5 371.7 223.6ZM374.2 222.1C374.3 221.6 374.6 221.2 375 220.9C375.4 220.6 376 220.6 376.4 220.9C376.8 221.1 377.1 221.5 377.5 221.7C378.2 222 379 222.2 379.7 222C380.2 221.9 381 221.8 381 222.3C381 222.6 380.7 223 380.4 223.2C379 224.4 377.1 224.6 375.4 223.9C375.2 223.5 374.9 223.3 374.6 223.1C374.4 223.1 374.2 223 374.1 222.8C374 222.6 374 222.3 374.2 222.1ZM286.7 62.8C287.8 61 288.4 60 289.6 58.2C290.3 56.9 291.2 55.8 292.2 54.7C292.9 54 293.7 53.4 294.5 52.9C295.5 52.3 296.6 51.9 297.7 51.8C298.7 51.7 299.7 52.3 300.1 53.2C300.3 54.1 300 55.1 299.3 55.7C297.9 57.4 295.9 58.6 294.5 60.3C293.4 61.6 292.8 62.8 291.2 63.7C290.3 64.2 288.1 66.3 287.4 66.5C284.8 67.1 286 63.8 286.7 62.8ZM344 215.8C343.6 217.1 342.2 217.9 340.9 217.6L342.6 218.4C340.5 219.2 338.5 218.3 336.5 218.3C335.5 218.4 334.5 218.7 333.6 219C332.4 219 331.2 218.9 330 218.5C324.2 217.3 318.5 216 312.9 214.6C310 214 307.1 213.1 304.3 211.9C303.4 211.6 302.7 211 302.2 210.3C301.6 209.5 301.7 208.4 302.3 207.7C302.7 207.4 303.2 207.4 303.7 207.2C305 206.6 305 204.6 304.8 203C307.6 203.3 308.9 203.5 311.7 203.8C312.2 203.4 312 202.5 311.8 201.8C311.4 201.2 311.2 200.5 311.2 199.8C311.4 199 312.1 198.5 312.9 198.5C313.7 198.6 314.4 198.8 315.1 199C317.7 199.6 320.3 198.4 323 197.9C325.2 197.6 327.3 197.5 329.5 197.5C330.7 197.6 332 197.2 332.8 196.3C333.7 195.2 333.5 193.4 334.6 192.5C335.4 191.9 336.6 192.1 337.6 192.4C338.9 192.8 340.4 193.3 341.1 194.6C341.4 195.3 341.5 196.1 341.5 196.9C341.5 199.1 341.5 201.5 339.9 203.1C339.3 203.7 338.5 204.1 337.8 204.6C337.1 205.1 336.7 206 336.7 206.9C336.9 207.3 337 207.7 337 208.1C337 208.7 336.5 209.2 336.3 209.8C335.5 211.6 337.1 213.5 338.9 214.1C340.6 214.6 342.6 214.5 344.1 215.5C344.1 215.6 344.1 215.7 344 215.8ZM354.8 124.8C353.9 128.7 353.4 130.6 352.5 134.5C352.4 135.3 352.1 136.1 351.6 136.7C351.1 137.2 350.4 137.6 349.7 137.9C347.7 138.5 345.9 139.4 344.2 140.5C342.7 141.8 341.4 143.2 340.2 144.8C339 146.3 337.3 147.4 335.3 147.7C334.5 147.7 333.6 147.7 332.8 147.5C328.4 146.8 324 146.7 319.5 147.1C318.8 147.2 318.2 147.2 317.5 147.1C316 146.7 314.9 145.5 314.8 143.9C314.7 142.6 315.4 141.4 315.2 140.1C314.6 137 309.7 136.9 308.2 134.1C308 133.6 307.7 133.1 307.3 132.7C306.6 132.4 305.8 132.6 305.4 133.2C305.1 133.8 304.9 134.6 304.9 135.3C301.6 133.7 298.2 132.4 294.7 131.4C293.5 131.2 292.3 130.8 291.2 130.1C289.4 128.8 289 126.3 288.9 124.2L290.6 124.7C290.6 124.4 290.6 124 290.4 123.8C288.1 118.5 286.3 113.1 285.1 107.5C284.7 105.4 283.2 102.7 284.7 101.2C285.2 100.6 285 99.8 284.4 99.3C284.4 99.3 284.4 99.3 284.3 99.3C283.6 98.9 282.9 98.6 282.1 98.6L275.9 97.8C275.4 97.8 275 97.6 274.6 97.3C274 96.7 274.4 95.8 274.9 95.1C280.6 88.4 289.1 85 293.8 77.4C294.5 76.1 295 74.7 295.5 73.3C296.4 71 297.6 68.8 298.9 66.7C299.4 65.8 300.1 65 300.9 64.2C302.9 62.5 305.8 61.9 307.3 59.9C309 57.7 308.6 54.2 311.3 52.9C312.9 52.1 315 52.6 316.3 51.4C317.4 50.4 317.3 48.8 318 47.5C318.9 45.9 320.9 45.1 322.6 44.7C326.2 43.7 330 43.6 333.7 44.4C334.3 44.5 334.8 44.7 335.3 45.1C336.2 46.1 335.7 47.8 335.5 49.2C335.1 52.4 336.8 55.3 336.5 58.5C336.2 61.9 333.5 65.2 334.4 68.4C332.6 70.3 330.7 72.3 330 74.7C328.8 78.9 331.2 83.3 329.7 87.4C329.3 88.5 328.7 89.4 328.2 90.5C327.5 92.2 327.5 94 328 95.8C328.3 97 329.2 97.9 330.3 98.3C330.8 98.3 331.3 98.4 331.7 98.5C332.7 98.9 333 100.2 333.4 101.2C334.4 103.3 336.8 104.3 339.1 105.1C344.1 106.9 346.7 107.8 351.7 109.6C352.1 109.7 352.4 109.9 352.6 110.2C353 110.7 352.7 111.5 352.5 112.1C352 113.7 352.1 115.3 352.7 116.9C353.3 118.4 354.4 119.6 354.7 121.2C355.3 122.3 355.2 123.6 354.8 124.8Z" fill="#E8E8E8"/>
</g>
<defs>
<clipPath id="clip0">
<rect width="517.1" height="520.1" fill="white"/>
</clipPath>
</defs>
</svg>
